<svg class="toyplot-canvas-Canvas" height="800.0px" id="tb72b727f6bc846b7b8043da3c259f614" preserveAspectRatio="xMidYMid meet" style="background-color:transparent;border-color:#292724;border-style:none;border-width:1.0;fill:rgb(16.1%,15.3%,14.1%);fill-opacity:1.0;font-family:Helvetica;font-size:12px;opacity:1.0;stroke:rgb(16.1%,15.3%,14.1%);stroke-opacity:1.0;stroke-width:1.0" viewBox="0 0 400.0 800.0" width="400.0px" xmlns="http://www.w3.org/2000/svg" xmlns:toyplot="http://www.sandia.gov/toyplot" xmlns:xlink="http://www.w3.org/1999/xlink"><g class="toyplot-coordinates-Cartesian" id="t6680fdc41a094ae4b47fa2959df2ab9f"><clipPath id="t18c8005a79454c41a2451acf36ee0026"><rect height="740.0" width="340.0" x="30.0" y="30.0" /></clipPath><g clip-path="url(#t18c8005a79454c41a2451acf36ee0026)"><g class="toytree-mark-Toytree" id="tc757e7a684604924bcfc006ce420542a"><g class="toytree-Edges" style="fill:none;stroke:rgb(14.9%,14.9%,14.9%);stroke-linecap:round;stroke-opacity:1;stroke-width:2"><path d="M 51.1 132.9 L 51.1 75.9 L 67.7 75.9" id="92,91" /><path d="M 51.1 132.9 L 51.1 189.9 L 73.0 189.9" id="92,90" /><path d="M 67.7 75.9 L 67.7 89.7 L 77.7 89.7" id="91,89" /><path d="M 73.0 189.9 L 73.0 148.5 L 78.3 148.5" id="90,88" /><path d="M 73.0 189.9 L 73.0 231.3 L 76.5 231.3" id="90,87" /><path d="M 77.7 89.7 L 77.7 102.6 L 87.1 102.6" id="89,86" /><path d="M 78.3 148.5 L 78.3 161.3 L 83.5 161.3" id="88,85" /><path d="M 76.5 231.3 L 76.5 268.2 L 79.1 268.2" id="87,84" /><path d="M 87.1 102.6 L 87.1 113.6 L 95.3 113.6" id="86,83" /><path d="M 83.5 161.3 L 83.5 172.3 L 86.5 172.3" id="85,82" /><path d="M 79.1 268.2 L 79.1 216.4 L 101.2 216.4" id="84,81" /><path d="M 79.1 268.2 L 79.1 319.9 L 81.7 319.9" id="84,80" /><path d="M 81.7 319.9 L 81.7 249.4 L 105.7 249.4" id="80,79" /><path d="M 81.7 319.9 L 81.7 390.4 L 84.9 390.4" id="80,78" /><path d="M 105.7 249.4 L 105.7 260.5 L 130.9 260.5" id="79,77" /><path d="M 84.9 390.4 L 84.9 296.3 L 89.0 296.3" id="78,76" /><path d="M 84.9 390.4 L 84.9 484.5 L 90.9 484.5" id="78,75" /><path d="M 89.0 296.3 L 89.0 310.0 L 98.0 310.0" id="76,74" /><path d="M 90.9 484.5 L 90.9 406.4 L 95.9 406.4" id="75,73" /><path d="M 90.9 484.5 L 90.9 562.6 L 97.2 562.6" id="75,72" /><path d="M 98.0 310.0 L 98.0 322.9 L 111.4 322.9" id="74,71" /><path d="M 95.9 406.4 L 95.9 368.8 L 103.2 368.8" id="73,70" /><path d="M 95.9 406.4 L 95.9 444.1 L 137.3 444.1" id="73,69" /><path d="M 97.2 562.6 L 97.2 513.8 L 129.6 513.8" id="72,68" /><path d="M 97.2 562.6 L 97.2 611.4 L 119.2 611.4" id="72,67" /><path d="M 111.4 322.9 L 111.4 333.9 L 122.4 333.9" id="71,66" /><path d="M 103.2 368.8 L 103.2 381.6 L 131.1 381.6" id="70,65" /><path d="M 137.3 444.1 L 137.3 422.0 L 143.6 422.0" id="69,64" /><path d="M 137.3 444.1 L 137.3 466.1 L 147.7 466.1" id="69,63" /><path d="M 129.6 513.8 L 129.6 524.9 L 156.4 524.9" id="68,62" /><path d="M 119.2 611.4 L 119.2 565.2 L 125.8 565.2" id="67,61" /><path d="M 119.2 611.4 L 119.2 657.5 L 129.6 657.5" id="67,60" /><path d="M 131.1 381.6 L 131.1 392.7 L 138.5 392.7" id="65,59" /><path d="M 147.7 466.1 L 147.7 451.4 L 176.2 451.4" id="63,58" /><path d="M 147.7 466.1 L 147.7 480.8 L 197.0 480.8" id="63,57" /><path d="M 125.8 565.2 L 125.8 583.6 L 129.1 583.6" id="61,56" /><path d="M 129.6 657.5 L 129.6 631.3 L 138.2 631.3" id="60,55" /><path d="M 129.6 657.5 L 129.6 683.7 L 145.0 683.7" id="60,54" /><path d="M 129.1 583.6 L 129.1 568.9 L 180.8 568.9" id="56,53" /><path d="M 129.1 583.6 L 129.1 598.3 L 154.7 598.3" id="56,52" /><path d="M 138.2 631.3 L 138.2 642.4 L 146.2 642.4" id="55,51" /><path d="M 145.0 683.7 L 145.0 703.0 L 148.6 703.0" id="54,50" /><path d="M 148.6 703.0 L 148.6 686.4 L 181.1 686.4" id="50,49" /><path d="M 148.6 703.0 L 148.6 719.5 L 153.6 719.5" id="50,48" /><path d="M 153.6 719.5 L 153.6 730.5 L 160.1 730.5" id="48,47" /><path d="M 67.7 75.9 L 67.7 62.2 L 160.8 62.2" id="91,46" /><path d="M 77.7 89.7 L 77.7 76.9 L 150.6 76.9" id="89,45" /><path d="M 87.1 102.6 L 87.1 91.5 L 175.2 91.5" id="86,44" /><path d="M 95.3 113.6 L 95.3 106.2 L 139.2 106.2" id="83,43" /><path d="M 95.3 113.6 L 95.3 120.9 L 132.7 120.9" id="83,42" /><path d="M 78.3 148.5 L 78.3 135.6 L 152.2 135.6" id="88,41" /><path d="M 83.5 161.3 L 83.5 150.3 L 144.2 150.3" id="85,40" /><path d="M 86.5 172.3 L 86.5 165.0 L 134.0 165.0" id="82,39" /><path d="M 86.5 172.3 L 86.5 179.7 L 115.7 179.7" id="82,38" /><path d="M 76.5 231.3 L 76.5 194.4 L 132.8 194.4" id="87,37" /><path d="M 101.2 216.4 L 101.2 209.0 L 140.4 209.0" id="81,36" /><path d="M 101.2 216.4 L 101.2 223.7 L 142.0 223.7" id="81,35" /><path d="M 105.7 249.4 L 105.7 238.4 L 136.1 238.4" id="79,34" /><path d="M 130.9 260.5 L 130.9 253.1 L 147.0 253.1" id="77,33" /><path d="M 130.9 260.5 L 130.9 267.8 L 162.2 267.8" id="77,32" /><path d="M 89.0 296.3 L 89.0 282.5 L 209.4 282.5" id="76,31" /><path d="M 98.0 310.0 L 98.0 297.2 L 156.3 297.2" id="74,30" /><path d="M 111.4 322.9 L 111.4 311.9 L 179.6 311.9" id="71,29" /><path d="M 122.4 333.9 L 122.4 326.6 L 208.3 326.6" id="66,28" /><path d="M 122.4 333.9 L 122.4 341.2 L 187.5 341.2" id="66,27" /><path d="M 103.2 368.8 L 103.2 355.9 L 199.1 355.9" id="70,26" /><path d="M 131.1 381.6 L 131.1 370.6 L 192.8 370.6" id="65,25" /><path d="M 138.5 392.7 L 138.5 385.3 L 184.7 385.3" id="59,24" /><path d="M 138.5 392.7 L 138.5 400.0 L 184.9 400.0" id="59,23" /><path d="M 143.6 422.0 L 143.6 414.7 L 178.6 414.7" id="64,22" /><path d="M 143.6 422.0 L 143.6 429.4 L 210.9 429.4" id="64,21" /><path d="M 176.2 451.4 L 176.2 444.1 L 197.2 444.1" id="58,20" /><path d="M 176.2 451.4 L 176.2 458.8 L 201.7 458.8" id="58,19" /><path d="M 197.0 480.8 L 197.0 473.4 L 216.5 473.4" id="57,18" /><path d="M 197.0 480.8 L 197.0 488.1 L 204.0 488.1" id="57,17" /><path d="M 129.6 513.8 L 129.6 502.8 L 191.1 502.8" id="68,16" /><path d="M 156.4 524.9 L 156.4 517.5 L 191.7 517.5" id="62,15" /><path d="M 156.4 524.9 L 156.4 532.2 L 180.2 532.2" id="62,14" /><path d="M 125.8 565.2 L 125.8 546.9 L 172.8 546.9" id="61,13" /><path d="M 180.8 568.9 L 180.8 561.6 L 186.1 561.6" id="53,12" /><path d="M 180.8 568.9 L 180.8 576.3 L 182.8 576.3" id="53,11" /><path d="M 154.7 598.3 L 154.7 591.0 L 167.4 591.0" id="52,10" /><path d="M 154.7 598.3 L 154.7 605.6 L 171.6 605.6" id="52,9" /><path d="M 138.2 631.3 L 138.2 620.3 L 157.9 620.3" id="55,8" /><path d="M 146.2 642.4 L 146.2 635.0 L 169.7 635.0" id="51,7" /><path d="M 146.2 642.4 L 146.2 649.7 L 163.8 649.7" id="51,6" /><path d="M 145.0 683.7 L 145.0 664.4 L 165.3 664.4" id="54,5" /><path d="M 181.1 686.4 L 181.1 679.1 L 183.9 679.1" id="49,4" /><path d="M 181.1 686.4 L 181.1 693.8 L 184.9 693.8" id="49,3" /><path d="M 153.6 719.5 L 153.6 708.5 L 174.7 708.5" id="48,2" /><path d="M 160.1 730.5 L 160.1 723.1 L 180.9 723.1" id="47,1" /><path d="M 160.1 730.5 L 160.1 737.8 L 169.4 737.8" id="47,0" /></g><g class="toytree-AlignEdges" style="stroke:rgb(66.3%,66.3%,66.3%);stroke-dasharray:2, 4;stroke-linecap:round;stroke-opacity:1.0;stroke-width:2"><path d="M 216.5 737.8 L 169.4 737.8" /><path d="M 216.5 723.1 L 180.9 723.1" /><path d="M 216.5 708.5 L 174.7 708.5" /><path d="M 216.5 693.8 L 184.9 693.8" /><path d="M 216.5 679.1 L 183.9 679.1" /><path d="M 216.5 664.4 L 165.3 664.4" /><path d="M 216.5 649.7 L 163.8 649.7" /><path d="M 216.5 635.0 L 169.7 635.0" /><path d="M 216.5 620.3 L 157.9 620.3" /><path d="M 216.5 605.6 L 171.6 605.6" /><path d="M 216.5 591.0 L 167.4 591.0" /><path d="M 216.5 576.3 L 182.8 576.3" /><path d="M 216.5 561.6 L 186.1 561.6" /><path d="M 216.5 546.9 L 172.8 546.9" /><path d="M 216.5 532.2 L 180.2 532.2" /><path d="M 216.5 517.5 L 191.7 517.5" /><path d="M 216.5 502.8 L 191.1 502.8" /><path d="M 216.5 488.1 L 204.0 488.1" /><path d="M 216.5 473.4 L 216.5 473.4" /><path d="M 216.5 458.8 L 201.7 458.8" /><path d="M 216.5 444.1 L 197.2 444.1" /><path d="M 216.5 429.4 L 210.9 429.4" /><path d="M 216.5 414.7 L 178.6 414.7" /><path d="M 216.5 400.0 L 184.9 400.0" /><path d="M 216.5 385.3 L 184.7 385.3" /><path d="M 216.5 370.6 L 192.8 370.6" /><path d="M 216.5 355.9 L 199.1 355.9" /><path d="M 216.5 341.2 L 187.5 341.2" /><path d="M 216.5 326.6 L 208.3 326.6" /><path d="M 216.5 311.9 L 179.6 311.9" /><path d="M 216.5 297.2 L 156.3 297.2" /><path d="M 216.5 282.5 L 209.4 282.5" /><path d="M 216.5 267.8 L 162.2 267.8" /><path d="M 216.5 253.1 L 147.0 253.1" /><path d="M 216.5 238.4 L 136.1 238.4" /><path d="M 216.5 223.7 L 142.0 223.7" /><path d="M 216.5 209.0 L 140.4 209.0" /><path d="M 216.5 194.4 L 132.8 194.4" /><path d="M 216.5 179.7 L 115.7 179.7" /><path d="M 216.5 165.0 L 134.0 165.0" /><path d="M 216.5 150.3 L 144.2 150.3" /><path d="M 216.5 135.6 L 152.2 135.6" /><path d="M 216.5 120.9 L 132.7 120.9" /><path d="M 216.5 106.2 L 139.2 106.2" /><path d="M 216.5 91.5 L 175.2 91.5" /><path d="M 216.5 76.9 L 150.6 76.9" /><path d="M 216.5 62.2 L 160.8 62.2" /></g><g class="toytree-NodeLabels" style="fill:rgb(14.9%,14.9%,14.9%);fill-opacity:1.0;font-size:9px;stroke:none"><g transform="translate(142.57,742.79)"><text>100</text></g><g transform="translate(136.08,731.78)"><text>100</text></g><g transform="translate(163.55,698.73)"><text>100</text></g><g transform="translate(131.05,715.25)"><text>100</text></g><g transform="translate(128.66,654.66)"><text>100</text></g><g transform="translate(137.22,610.60)"><text>100</text></g><g transform="translate(163.28,581.22)"><text>100</text></g><g transform="translate(127.50,695.97)"><text>100</text></g><g transform="translate(120.74,643.64)"><text>100</text></g><g transform="translate(114.14,595.91)"><text>77</text></g><g transform="translate(179.46,493.09)"><text>100</text></g><g transform="translate(158.65,463.71)"><text>100</text></g><g transform="translate(121.02,404.96)"><text>100</text></g><g transform="translate(112.09,669.81)"><text>100</text></g><g transform="translate(108.27,577.55)"><text>100</text></g><g transform="translate(138.92,537.15)"><text>100</text></g><g transform="translate(130.18,478.40)"><text>100</text></g><g transform="translate(128.55,434.33)"><text>95</text></g><g transform="translate(113.55,393.94)"><text>100</text></g><g transform="translate(104.89,346.20)"><text>100</text></g><g transform="translate(101.69,623.68)"><text>100</text></g><g transform="translate(112.07,526.14)"><text>100</text></g><g transform="translate(119.81,456.37)"><text>100</text></g><g transform="translate(85.68,381.09)"><text>100</text></g><g transform="translate(93.91,335.18)"><text>100</text></g><g transform="translate(79.65,574.91)"><text>100</text></g><g transform="translate(80.94,418.73)"><text>74</text></g><g transform="translate(80.49,322.33)"><text>100</text></g><g transform="translate(73.42,496.82)"><text>100</text></g><g transform="translate(73.98,308.56)"><text>57</text></g><g transform="translate(113.40,272.76)"><text>100</text></g><g transform="translate(69.95,402.69)"><text>50</text></g><g transform="translate(88.16,261.74)"><text>100</text></g><g transform="translate(66.71,332.22)"><text>48</text></g><g transform="translate(83.74,228.69)"><text>100</text></g><g transform="translate(71.51,184.63)"><text>84</text></g><g transform="translate(77.78,125.87)"><text>100</text></g><g transform="translate(64.10,280.45)"><text>88</text></g><g transform="translate(65.97,173.61)"><text>100</text></g><g transform="translate(69.57,114.86)"><text>100</text></g><g transform="translate(61.46,243.56)"><text>88</text></g><g transform="translate(60.81,160.76)"><text>100</text></g><g transform="translate(60.15,102.00)"><text>100</text></g><g transform="translate(55.47,202.16)"><text>100</text></g><g transform="translate(50.22,88.23)"><text>100</text></g></g><g class="toytree-TipLabels" style="fill:rgb(14.9%,14.9%,14.9%);fill-opacity:1.0;font-family:helvetica;font-size:11px;font-weight:normal;stroke:none;white-space:pre"><g transform="translate(216.48,737.84)rotate(0)"><text style="" x="15.00" y="2.81">S_bernardinus_e095</text></g><g transform="translate(216.48,723.15)rotate(0)"><text style="" x="15.00" y="2.81">S_bernardinus_NJ_4775</text></g><g transform="translate(216.48,708.46)rotate(0)"><text style="" x="15.00" y="2.81">S_medeirosii_NJ_525</text></g><g transform="translate(216.48,693.77)rotate(0)"><text style="" x="15.00" y="2.81">S_juneae_NJ_4772</text></g><g transform="translate(216.48,679.08)rotate(0)"><text style="" x="15.00" y="2.81">S_campestris_NJ_3785</text></g><g transform="translate(216.48,664.39)rotate(0)"><text style="" x="15.00" y="2.81">S_campestris_NJ_3800</text></g><g transform="translate(216.48,649.71)rotate(0)"><text style="" x="15.00" y="2.81">S_cordatus_e054</text></g><g transform="translate(216.48,635.02)rotate(0)"><text style="" x="15.00" y="2.81">S_cordatus_nic139</text></g><g transform="translate(216.48,620.33)rotate(0)"><text style="" x="15.00" y="2.81">S_oliganthus_NJ_3801</text></g><g transform="translate(216.48,605.64)rotate(0)"><text style="" x="15.00" y="2.81">S_longisiliquus_e055</text></g><g transform="translate(216.48,590.95)rotate(0)"><text style="" x="15.00" y="2.81">S_longisiliquus_nic180</text></g><g transform="translate(216.48,576.26)rotate(0)"><text style="" x="15.00" y="2.81">S_barbatus_nic176</text></g><g transform="translate(216.48,561.57)rotate(0)"><text style="" x="15.00" y="2.81">S_barbatus_NJ_4393</text></g><g transform="translate(216.48,546.89)rotate(0)"><text style="" x="15.00" y="2.81">S_howellii_nic152</text></g><g transform="translate(216.48,532.20)rotate(0)"><text style="" x="15.00" y="2.81">S_spnov_aarthur_NJ_0038</text></g><g transform="translate(216.48,517.51)rotate(0)"><text style="" x="15.00" y="2.81">S_glandulosus_nic202</text></g><g transform="translate(216.48,502.82)rotate(0)"><text style="" x="15.00" y="2.81">S_glandulosus_albidus_d108A</text></g><g transform="translate(216.48,488.13)rotate(0)"><text style="" x="15.00" y="2.81">S_barbiger_nic193</text></g><g transform="translate(216.48,473.44)rotate(0)"><text style="" x="15.00" y="2.81">S_barbiger_e045</text></g><g transform="translate(216.48,458.75)rotate(0)"><text style="" x="15.00" y="2.81">S_morrisonii_e016</text></g><g transform="translate(216.48,444.07)rotate(0)"><text style="" x="15.00" y="2.81">S_brachiatus_e100</text></g><g transform="translate(216.48,429.38)rotate(0)"><text style="" x="15.00" y="2.81">S_hesperidis_e043</text></g><g transform="translate(216.48,414.69)rotate(0)"><text style="" x="15.00" y="2.81">S_breweri_e035</text></g><g transform="translate(216.48,400.00)rotate(0)"><text style="" x="15.00" y="2.81">S_farnsworthianus_e034</text></g><g transform="translate(216.48,385.31)rotate(0)"><text style="" x="15.00" y="2.81">S_diversifolius_e077</text></g><g transform="translate(216.48,370.62)rotate(0)"><text style="" x="15.00" y="2.81">S_tortuosus_e040</text></g><g transform="translate(216.48,355.93)rotate(0)"><text style="" x="15.00" y="2.81">S_polygaloides_e071</text></g><g transform="translate(216.48,341.25)rotate(0)"><text style="" x="15.00" y="2.81">C_coulteri_e015</text></g><g transform="translate(216.48,326.56)rotate(0)"><text style="" x="15.00" y="2.81">C_californicus_NJ_3881</text></g><g transform="translate(216.48,311.87)rotate(0)"><text style="" x="15.00" y="2.81">C_inflatus_e044</text></g><g transform="translate(216.48,297.18)rotate(0)"><text style="" x="15.00" y="2.81">C_heterophyllus_nic027</text></g><g transform="translate(216.48,282.49)rotate(0)"><text style="" x="15.00" y="2.81">Si_hammittii_e111</text></g><g transform="translate(216.48,267.80)rotate(0)"><text style="" x="15.00" y="2.81">C_flavescens_e003</text></g><g transform="translate(216.48,253.11)rotate(0)"><text style="" x="15.00" y="2.81">C_anceps_nic053</text></g><g transform="translate(216.48,238.43)rotate(0)"><text style="" x="15.00" y="2.81">C_lasyophyllus_CalBod032213_1</text></g><g transform="translate(216.48,223.74)rotate(0)"><text style="" x="15.00" y="2.81">C_amp_barbarae_e020</text></g><g transform="translate(216.48,209.05)rotate(0)"><text style="" x="15.00" y="2.81">C_amp_amplexicaulis_e068</text></g><g transform="translate(216.48,194.36)rotate(0)"><text style="" x="15.00" y="2.81">C_hallii_e078</text></g><g transform="translate(216.48,179.67)rotate(0)"><text style="" x="15.00" y="2.81">S_pilosus_e053</text></g><g transform="translate(216.48,164.98)rotate(0)"><text style="" x="15.00" y="2.81">Thly_aurea_Porter_15531</text></g><g transform="translate(216.48,150.29)rotate(0)"><text style="" x="15.00" y="2.81">The_crispum_e084</text></g><g transform="translate(216.48,135.61)rotate(0)"><text style="" x="15.00" y="2.81">C_glaucus_Porter_15587</text></g><g transform="translate(216.48,120.92)rotate(0)"><text style="" x="15.00" y="2.81">St_pinnata_e090</text></g><g transform="translate(216.48,106.23)rotate(0)"><text style="" x="15.00" y="2.81">St_elata_e093</text></g><g transform="translate(216.48,91.54)rotate(0)"><text style="" x="15.00" y="2.81">C_major_NJ_4561</text></g><g transform="translate(216.48,76.85)rotate(0)"><text style="" x="15.00" y="2.81">Sl_longirostris_e065</text></g><g transform="translate(216.48,62.16)rotate(0)"><text style="" x="15.00" y="2.81">S_bracteatus_e120</text></g></g></g></g></g></svg>