<svg class="toyplot-canvas-Canvas" height="800.0px" id="td9790bf4ab0b480f9dbca3c45de1bbf2" preserveAspectRatio="xMidYMid meet" style="background-color:transparent;border-color:#292724;border-style:none;border-width:1.0;fill:rgb(16.1%,15.3%,14.1%);fill-opacity:1.0;font-family:Helvetica;font-size:12px;opacity:1.0;stroke:rgb(16.1%,15.3%,14.1%);stroke-opacity:1.0;stroke-width:1.0" viewBox="0 0 400.0 800.0" width="400.0px" xmlns="http://www.w3.org/2000/svg" xmlns:toyplot="http://www.sandia.gov/toyplot" xmlns:xlink="http://www.w3.org/1999/xlink"><g class="toyplot-coordinates-Cartesian" id="tb6c8d9d5233b423ba196824cdae7102e"><clipPath id="t7ccd4c015afe46fda33da57f4f9281ae"><rect height="740.0" width="340.0" x="30.0" y="30.0" /></clipPath><g clip-path="url(#t7ccd4c015afe46fda33da57f4f9281ae)"><g class="toytree-mark-Toytree" id="t5b5bda5c6e7d4432a50da2093fc59210"><g class="toytree-Edges" style="fill:none;stroke:rgb(14.9%,14.9%,14.9%);stroke-linecap:round;stroke-opacity:1;stroke-width:2"><path d="M 51.2 193.1 L 51.2 72.4 L 95.4 72.4" id="124,123" style="stroke:rgb(10.6%,62%,46.7%);stroke-opacity:1.0" /><path d="M 51.2 193.1 L 51.2 313.7 L 83.9 313.7" id="124,122" /><path d="M 95.4 72.4 L 95.4 82.6 L 124.3 82.6" id="123,121" style="stroke:rgb(10.6%,62%,46.7%);stroke-opacity:1.0" /><path d="M 83.9 313.7 L 83.9 175.1 L 95.1 175.1" id="122,120" /><path d="M 83.9 313.7 L 83.9 452.4 L 99.2 452.4" id="122,119" /><path d="M 124.3 82.6 L 124.3 92.1 L 135.7 92.1" id="121,118" style="stroke:rgb(10.6%,62%,46.7%);stroke-opacity:1.0" /><path d="M 95.1 175.1 L 95.1 126.9 L 145.4 126.9" id="120,117" style="stroke:rgb(85.1%,37.3%,0.8%);stroke-opacity:1.0" /><path d="M 95.1 175.1 L 95.1 223.2 L 103.0 223.2" id="120,116" /><path d="M 99.2 452.4 L 99.2 340.7 L 114.7 340.7" id="119,115" /><path d="M 99.2 452.4 L 99.2 564.2 L 124.3 564.2" id="119,114" /><path d="M 135.7 92.1 L 135.7 100.3 L 153.7 100.3" id="118,113" style="stroke:rgb(10.6%,62%,46.7%);stroke-opacity:1.0" /><path d="M 145.4 126.9 L 145.4 137.1 L 154.3 137.1" id="117,112" style="stroke:rgb(85.1%,37.3%,0.8%);stroke-opacity:1.0" /><path d="M 103.0 223.2 L 103.0 185.4 L 132.8 185.4" id="116,111" style="stroke:rgb(45.9%,43.9%,70.2%);stroke-opacity:1.0" /><path d="M 103.0 223.2 L 103.0 261.1 L 175.4 261.1" id="116,110" style="stroke:rgb(90.6%,16.1%,54.1%);stroke-opacity:1.0" /><path d="M 114.7 340.7 L 114.7 310.1 L 142.6 310.1" id="115,109" style="stroke:rgb(40%,65.1%,11.8%);stroke-opacity:1.0" /><path d="M 114.7 340.7 L 114.7 371.2 L 130.2 371.2" id="115,108" style="stroke:rgb(90.2%,67.1%,0.8%);stroke-opacity:1.0" /><path d="M 124.3 564.2 L 124.3 515.8 L 153.8 515.8" id="114,107" style="stroke:rgb(65.1%,46.3%,11.4%);stroke-opacity:1.0" /><path d="M 124.3 564.2 L 124.3 612.5 L 131.9 612.5" id="114,106" /><path d="M 154.3 137.1 L 154.3 146.6 L 162.4 146.6" id="112,105" style="stroke:rgb(85.1%,37.3%,0.8%);stroke-opacity:1.0" /><path d="M 132.8 185.4 L 132.8 199.7 L 140.3 199.7" id="111,104" style="stroke:rgb(45.9%,43.9%,70.2%);stroke-opacity:1.0" /><path d="M 175.4 261.1 L 175.4 244.7 L 187.3 244.7" id="110,103" style="stroke:rgb(90.6%,16.1%,54.1%);stroke-opacity:1.0" /><path d="M 175.4 261.1 L 175.4 277.4 L 185.1 277.4" id="110,102" style="stroke:rgb(90.6%,16.1%,54.1%);stroke-opacity:1.0" /><path d="M 142.6 310.1 L 142.6 318.3 L 145.6 318.3" id="109,101" style="stroke:rgb(40%,65.1%,11.8%);stroke-opacity:1.0" /><path d="M 130.2 371.2 L 130.2 342.8 L 151.1 342.8" id="108,100" style="stroke:rgb(90.2%,67.1%,0.8%);stroke-opacity:1.0" /><path d="M 130.2 371.2 L 130.2 399.7 L 136.7 399.7" id="108,99" style="stroke:rgb(90.2%,67.1%,0.8%);stroke-opacity:1.0" /><path d="M 153.8 515.8 L 153.8 503.5 L 168.9 503.5" id="107,98" style="stroke:rgb(65.1%,46.3%,11.4%);stroke-opacity:1.0" /><path d="M 153.8 515.8 L 153.8 528.1 L 163.4 528.1" id="107,97" style="stroke:rgb(65.1%,46.3%,11.4%);stroke-opacity:1.0" /><path d="M 131.9 612.5 L 131.9 562.8 L 180.4 562.8" id="106,96" style="stroke:rgb(40%,40%,40%);stroke-opacity:1.0" /><path d="M 131.9 612.5 L 131.9 662.2 L 141.0 662.2" id="106,95" /><path d="M 162.4 146.6 L 162.4 154.8 L 172.3 154.8" id="105,94" style="stroke:rgb(85.1%,37.3%,0.8%);stroke-opacity:1.0" /><path d="M 140.3 199.7 L 140.3 187.5 L 150.1 187.5" id="104,93" style="stroke:rgb(45.9%,43.9%,70.2%);stroke-opacity:1.0" /><path d="M 140.3 199.7 L 140.3 212.0 L 146.8 212.0" id="104,92" style="stroke:rgb(45.9%,43.9%,70.2%);stroke-opacity:1.0" /><path d="M 187.3 244.7 L 187.3 252.9 L 190.5 252.9" id="103,91" style="stroke:rgb(90.6%,16.1%,54.1%);stroke-opacity:1.0" /><path d="M 185.1 277.4 L 185.1 285.6 L 189.0 285.6" id="102,90" style="stroke:rgb(90.6%,16.1%,54.1%);stroke-opacity:1.0" /><path d="M 151.1 342.8 L 151.1 351.0 L 162.0 351.0" id="100,89" style="stroke:rgb(90.2%,67.1%,0.8%);stroke-opacity:1.0" /><path d="M 136.7 399.7 L 136.7 372.8 L 145.1 372.8" id="99,88" style="stroke:rgb(90.2%,67.1%,0.8%);stroke-opacity:1.0" /><path d="M 136.7 399.7 L 136.7 426.6 L 142.6 426.6" id="99,87" style="stroke:rgb(90.2%,67.1%,0.8%);stroke-opacity:1.0" /><path d="M 163.4 528.1 L 163.4 536.2 L 170.0 536.2" id="97,86" style="stroke:rgb(65.1%,46.3%,11.4%);stroke-opacity:1.0" /><path d="M 180.4 562.8 L 180.4 573.0 L 182.5 573.0" id="96,85" style="stroke:rgb(40%,40%,40%);stroke-opacity:1.0" /><path d="M 141.0 662.2 L 141.0 631.6 L 173.5 631.6" id="95,84" style="stroke:rgb(40%,76.1%,64.7%);stroke-opacity:1.0" /><path d="M 141.0 662.2 L 141.0 692.9 L 151.6 692.9" id="95,83" style="stroke:rgb(98.8%,55.3%,38.4%);stroke-opacity:1.0" /><path d="M 146.8 212.0 L 146.8 220.2 L 153.7 220.2" id="92,82" style="stroke:rgb(45.9%,43.9%,70.2%);stroke-opacity:1.0" /><path d="M 142.6 426.6 L 142.6 399.3 L 147.1 399.3" id="87,81" style="stroke:rgb(90.2%,67.1%,0.8%);stroke-opacity:1.0" /><path d="M 142.6 426.6 L 142.6 453.8 L 153.2 453.8" id="87,80" style="stroke:rgb(90.2%,67.1%,0.8%);stroke-opacity:1.0" /><path d="M 182.5 573.0 L 182.5 582.5 L 185.1 582.5" id="85,79" style="stroke:rgb(40%,40%,40%);stroke-opacity:1.0" /><path d="M 173.5 631.6 L 173.5 615.2 L 179.9 615.2" id="84,78" style="stroke:rgb(40%,76.1%,64.7%);stroke-opacity:1.0" /><path d="M 173.5 631.6 L 173.5 647.9 L 179.0 647.9" id="84,77" style="stroke:rgb(40%,76.1%,64.7%);stroke-opacity:1.0" /><path d="M 151.6 692.9 L 151.6 677.9 L 158.3 677.9" id="83,76" style="stroke:rgb(98.8%,55.3%,38.4%);stroke-opacity:1.0" /><path d="M 151.6 692.9 L 151.6 707.9 L 157.9 707.9" id="83,75" style="stroke:rgb(98.8%,55.3%,38.4%);stroke-opacity:1.0" /><path d="M 147.1 399.3 L 147.1 409.5 L 167.0 409.5" id="81,74" style="stroke:rgb(90.2%,67.1%,0.8%);stroke-opacity:1.0" /><path d="M 153.2 453.8 L 153.2 464.0 L 158.4 464.0" id="80,73" style="stroke:rgb(90.2%,67.1%,0.8%);stroke-opacity:1.0" /><path d="M 185.1 582.5 L 185.1 590.7 L 188.8 590.7" id="79,72" style="stroke:rgb(40%,40%,40%);stroke-opacity:1.0" /><path d="M 179.9 615.2 L 179.9 623.4 L 188.8 623.4" id="78,71" style="stroke:rgb(40%,76.1%,64.7%);stroke-opacity:1.0" /><path d="M 179.0 647.9 L 179.0 656.1 L 184.8 656.1" id="77,70" style="stroke:rgb(40%,76.1%,64.7%);stroke-opacity:1.0" /><path d="M 157.9 707.9 L 157.9 721.5 L 171.1 721.5" id="75,69" style="stroke:rgb(98.8%,55.3%,38.4%);stroke-opacity:1.0" /><path d="M 167.0 409.5 L 167.0 419.1 L 175.3 419.1" id="74,68" style="stroke:rgb(90.2%,67.1%,0.8%);stroke-opacity:1.0" /><path d="M 158.4 464.0 L 158.4 473.6 L 161.8 473.6" id="73,67" style="stroke:rgb(90.2%,67.1%,0.8%);stroke-opacity:1.0" /><path d="M 171.1 721.5 L 171.1 710.6 L 175.9 710.6" id="69,66" style="stroke:rgb(98.8%,55.3%,38.4%);stroke-opacity:1.0" /><path d="M 171.1 721.5 L 171.1 732.4 L 175.5 732.4" id="69,65" style="stroke:rgb(98.8%,55.3%,38.4%);stroke-opacity:1.0" /><path d="M 175.3 419.1 L 175.3 427.2 L 180.8 427.2" id="68,64" style="stroke:rgb(90.2%,67.1%,0.8%);stroke-opacity:1.0" /><path d="M 161.8 473.6 L 161.8 481.7 L 164.3 481.7" id="67,63" style="stroke:rgb(90.2%,67.1%,0.8%);stroke-opacity:1.0" /><path d="M 95.4 72.4 L 95.4 62.2 L 181.3 62.2" id="123,62" style="stroke:rgb(10.6%,62%,46.7%);stroke-opacity:1.0" /><path d="M 124.3 82.6 L 124.3 73.1 L 166.2 73.1" id="121,61" style="stroke:rgb(10.6%,62%,46.7%);stroke-opacity:1.0" /><path d="M 135.7 92.1 L 135.7 84.0 L 171.0 84.0" id="118,60" style="stroke:rgb(10.6%,62%,46.7%);stroke-opacity:1.0" /><path d="M 153.7 100.3 L 153.7 94.9 L 190.9 94.9" id="113,59" style="stroke:rgb(10.6%,62%,46.7%);stroke-opacity:1.0" /><path d="M 153.7 100.3 L 153.7 105.8 L 170.5 105.8" id="113,58" style="stroke:rgb(10.6%,62%,46.7%);stroke-opacity:1.0" /><path d="M 145.4 126.9 L 145.4 116.7 L 170.3 116.7" id="117,57" style="stroke:rgb(85.1%,37.3%,0.8%);stroke-opacity:1.0" /><path d="M 154.3 137.1 L 154.3 127.6 L 195.6 127.6" id="112,56" style="stroke:rgb(85.1%,37.3%,0.8%);stroke-opacity:1.0" /><path d="M 162.4 146.6 L 162.4 138.4 L 192.6 138.4" id="105,55" style="stroke:rgb(85.1%,37.3%,0.8%);stroke-opacity:1.0" /><path d="M 172.3 154.8 L 172.3 149.3 L 224.2 149.3" id="94,54" style="stroke:rgb(85.1%,37.3%,0.8%);stroke-opacity:1.0" /><path d="M 172.3 154.8 L 172.3 160.2 L 187.7 160.2" id="94,53" style="stroke:rgb(85.1%,37.3%,0.8%);stroke-opacity:1.0" /><path d="M 132.8 185.4 L 132.8 171.1 L 209.5 171.1" id="111,52" style="stroke:rgb(45.9%,43.9%,70.2%);stroke-opacity:1.0" /><path d="M 150.1 187.5 L 150.1 182.0 L 170.5 182.0" id="93,51" style="stroke:rgb(45.9%,43.9%,70.2%);stroke-opacity:1.0" /><path d="M 150.1 187.5 L 150.1 192.9 L 165.9 192.9" id="93,50" style="stroke:rgb(45.9%,43.9%,70.2%);stroke-opacity:1.0" /><path d="M 146.8 212.0 L 146.8 203.8 L 187.4 203.8" id="92,49" style="stroke:rgb(45.9%,43.9%,70.2%);stroke-opacity:1.0" /><path d="M 153.7 220.2 L 153.7 214.7 L 167.5 214.7" id="82,48" style="stroke:rgb(45.9%,43.9%,70.2%);stroke-opacity:1.0" /><path d="M 153.7 220.2 L 153.7 225.6 L 186.5 225.6" id="82,47" style="stroke:rgb(45.9%,43.9%,70.2%);stroke-opacity:1.0" /><path d="M 187.3 244.7 L 187.3 236.5 L 190.4 236.5" id="103,46" style="stroke:rgb(90.6%,16.1%,54.1%);stroke-opacity:1.0" /><path d="M 190.5 252.9 L 190.5 247.4 L 207.5 247.4" id="91,45" style="stroke:rgb(90.6%,16.1%,54.1%);stroke-opacity:1.0" /><path d="M 190.5 252.9 L 190.5 258.3 L 202.3 258.3" id="91,44" style="stroke:rgb(90.6%,16.1%,54.1%);stroke-opacity:1.0" /><path d="M 185.1 277.4 L 185.1 269.2 L 200.6 269.2" id="102,43" style="stroke:rgb(90.6%,16.1%,54.1%);stroke-opacity:1.0" /><path d="M 189.0 285.6 L 189.0 280.1 L 199.8 280.1" id="90,42" style="stroke:rgb(90.6%,16.1%,54.1%);stroke-opacity:1.0" /><path d="M 189.0 285.6 L 189.0 291.0 L 211.1 291.0" id="90,41" style="stroke:rgb(90.6%,16.1%,54.1%);stroke-opacity:1.0" /><path d="M 142.6 310.1 L 142.6 301.9 L 151.8 301.9" id="109,40" style="stroke:rgb(40%,65.1%,11.8%);stroke-opacity:1.0" /><path d="M 145.6 318.3 L 145.6 312.8 L 154.7 312.8" id="101,39" style="stroke:rgb(40%,65.1%,11.8%);stroke-opacity:1.0" /><path d="M 145.6 318.3 L 145.6 323.7 L 154.0 323.7" id="101,38" style="stroke:rgb(40%,65.1%,11.8%);stroke-opacity:1.0" /><path d="M 151.1 342.8 L 151.1 334.6 L 168.7 334.6" id="100,37" style="stroke:rgb(90.2%,67.1%,0.8%);stroke-opacity:1.0" /><path d="M 162.0 351.0 L 162.0 345.5 L 207.9 345.5" id="89,36" style="stroke:rgb(90.2%,67.1%,0.8%);stroke-opacity:1.0" /><path d="M 162.0 351.0 L 162.0 356.4 L 167.0 356.4" id="89,35" style="stroke:rgb(90.2%,67.1%,0.8%);stroke-opacity:1.0" /><path d="M 145.1 372.8 L 145.1 367.3 L 173.1 367.3" id="88,34" style="stroke:rgb(90.2%,67.1%,0.8%);stroke-opacity:1.0" /><path d="M 145.1 372.8 L 145.1 378.2 L 166.0 378.2" id="88,33" style="stroke:rgb(90.2%,67.1%,0.8%);stroke-opacity:1.0" /><path d="M 147.1 399.3 L 147.1 389.1 L 175.1 389.1" id="81,32" style="stroke:rgb(90.2%,67.1%,0.8%);stroke-opacity:1.0" /><path d="M 167.0 409.5 L 167.0 400.0 L 184.2 400.0" id="74,31" style="stroke:rgb(90.2%,67.1%,0.8%);stroke-opacity:1.0" /><path d="M 175.3 419.1 L 175.3 410.9 L 196.3 410.9" id="68,30" style="stroke:rgb(90.2%,67.1%,0.8%);stroke-opacity:1.0" /><path d="M 180.8 427.2 L 180.8 421.8 L 202.4 421.8" id="64,29" style="stroke:rgb(90.2%,67.1%,0.8%);stroke-opacity:1.0" /><path d="M 180.8 427.2 L 180.8 432.7 L 198.3 432.7" id="64,28" style="stroke:rgb(90.2%,67.1%,0.8%);stroke-opacity:1.0" /><path d="M 153.2 453.8 L 153.2 443.6 L 186.3 443.6" id="80,27" style="stroke:rgb(90.2%,67.1%,0.8%);stroke-opacity:1.0" /><path d="M 158.4 464.0 L 158.4 454.5 L 172.1 454.5" id="73,26" style="stroke:rgb(90.2%,67.1%,0.8%);stroke-opacity:1.0" /><path d="M 161.8 473.6 L 161.8 465.4 L 169.3 465.4" id="67,25" style="stroke:rgb(90.2%,67.1%,0.8%);stroke-opacity:1.0" /><path d="M 164.3 481.7 L 164.3 476.3 L 180.9 476.3" id="63,24" style="stroke:rgb(90.2%,67.1%,0.8%);stroke-opacity:1.0" /><path d="M 164.3 481.7 L 164.3 487.2 L 172.9 487.2" id="63,23" style="stroke:rgb(90.2%,67.1%,0.8%);stroke-opacity:1.0" /><path d="M 168.9 503.5 L 168.9 498.1 L 197.2 498.1" id="98,22" style="stroke:rgb(65.1%,46.3%,11.4%);stroke-opacity:1.0" /><path d="M 168.9 503.5 L 168.9 509.0 L 179.8 509.0" id="98,21" style="stroke:rgb(65.1%,46.3%,11.4%);stroke-opacity:1.0" /><path d="M 163.4 528.1 L 163.4 519.9 L 167.9 519.9" id="97,20" style="stroke:rgb(65.1%,46.3%,11.4%);stroke-opacity:1.0" /><path d="M 170.0 536.2 L 170.0 530.8 L 206.2 530.8" id="86,19" style="stroke:rgb(65.1%,46.3%,11.4%);stroke-opacity:1.0" /><path d="M 170.0 536.2 L 170.0 541.7 L 213.4 541.7" id="86,18" style="stroke:rgb(65.1%,46.3%,11.4%);stroke-opacity:1.0" /><path d="M 180.4 562.8 L 180.4 552.6 L 185.7 552.6" id="96,17" style="stroke:rgb(40%,40%,40%);stroke-opacity:1.0" /><path d="M 182.5 573.0 L 182.5 563.5 L 184.9 563.5" id="85,16" style="stroke:rgb(40%,40%,40%);stroke-opacity:1.0" /><path d="M 185.1 582.5 L 185.1 574.4 L 198.7 574.4" id="79,15" style="stroke:rgb(40%,40%,40%);stroke-opacity:1.0" /><path d="M 188.8 590.7 L 188.8 585.3 L 195.9 585.3" id="72,14" style="stroke:rgb(40%,40%,40%);stroke-opacity:1.0" /><path d="M 188.8 590.7 L 188.8 596.2 L 200.3 596.2" id="72,13" style="stroke:rgb(40%,40%,40%);stroke-opacity:1.0" /><path d="M 179.9 615.2 L 179.9 607.1 L 186.4 607.1" id="78,12" style="stroke:rgb(40%,76.1%,64.7%);stroke-opacity:1.0" /><path d="M 188.8 623.4 L 188.8 618.0 L 194.1 618.0" id="71,11" style="stroke:rgb(40%,76.1%,64.7%);stroke-opacity:1.0" /><path d="M 188.8 623.4 L 188.8 628.9 L 205.4 628.9" id="71,10" style="stroke:rgb(40%,76.1%,64.7%);stroke-opacity:1.0" /><path d="M 179.0 647.9 L 179.0 639.8 L 185.5 639.8" id="77,9" style="stroke:rgb(40%,76.1%,64.7%);stroke-opacity:1.0" /><path d="M 184.8 656.1 L 184.8 650.7 L 190.3 650.7" id="70,8" style="stroke:rgb(40%,76.1%,64.7%);stroke-opacity:1.0" /><path d="M 184.8 656.1 L 184.8 661.6 L 195.3 661.6" id="70,7" style="stroke:rgb(40%,76.1%,64.7%);stroke-opacity:1.0" /><path d="M 158.3 677.9 L 158.3 672.4 L 177.8 672.4" id="76,6" style="stroke:rgb(98.8%,55.3%,38.4%);stroke-opacity:1.0" /><path d="M 158.3 677.9 L 158.3 683.3 L 168.8 683.3" id="76,5" style="stroke:rgb(98.8%,55.3%,38.4%);stroke-opacity:1.0" /><path d="M 157.9 707.9 L 157.9 694.2 L 182.4 694.2" id="75,4" style="stroke:rgb(98.8%,55.3%,38.4%);stroke-opacity:1.0" /><path d="M 175.9 710.6 L 175.9 705.1 L 179.5 705.1" id="66,3" style="stroke:rgb(98.8%,55.3%,38.4%);stroke-opacity:1.0" /><path d="M 175.9 710.6 L 175.9 716.0 L 185.9 716.0" id="66,2" style="stroke:rgb(98.8%,55.3%,38.4%);stroke-opacity:1.0" /><path d="M 175.5 732.4 L 175.5 726.9 L 190.5 726.9" id="65,1" style="stroke:rgb(98.8%,55.3%,38.4%);stroke-opacity:1.0" /><path d="M 175.5 732.4 L 175.5 737.8 L 188.9 737.8" id="65,0" style="stroke:rgb(98.8%,55.3%,38.4%);stroke-opacity:1.0" /></g><g class="toytree-AlignEdges" style="stroke:rgb(66.3%,66.3%,66.3%);stroke-dasharray:2, 4;stroke-linecap:round;stroke-opacity:1.0;stroke-width:2"><path d="M 224.2 737.8 L 188.9 737.8" /><path d="M 224.2 726.9 L 190.5 726.9" /><path d="M 224.2 716.0 L 185.9 716.0" /><path d="M 224.2 705.1 L 179.5 705.1" /><path d="M 224.2 694.2 L 182.4 694.2" /><path d="M 224.2 683.3 L 168.8 683.3" /><path d="M 224.2 672.4 L 177.8 672.4" /><path d="M 224.2 661.6 L 195.3 661.6" /><path d="M 224.2 650.7 L 190.3 650.7" /><path d="M 224.2 639.8 L 185.5 639.8" /><path d="M 224.2 628.9 L 205.4 628.9" /><path d="M 224.2 618.0 L 194.1 618.0" /><path d="M 224.2 607.1 L 186.4 607.1" /><path d="M 224.2 596.2 L 200.3 596.2" /><path d="M 224.2 585.3 L 195.9 585.3" /><path d="M 224.2 574.4 L 198.7 574.4" /><path d="M 224.2 563.5 L 184.9 563.5" /><path d="M 224.2 552.6 L 185.7 552.6" /><path d="M 224.2 541.7 L 213.4 541.7" /><path d="M 224.2 530.8 L 206.2 530.8" /><path d="M 224.2 519.9 L 167.9 519.9" /><path d="M 224.2 509.0 L 179.8 509.0" /><path d="M 224.2 498.1 L 197.2 498.1" /><path d="M 224.2 487.2 L 172.9 487.2" /><path d="M 224.2 476.3 L 180.9 476.3" /><path d="M 224.2 465.4 L 169.3 465.4" /><path d="M 224.2 454.5 L 172.1 454.5" /><path d="M 224.2 443.6 L 186.3 443.6" /><path d="M 224.2 432.7 L 198.3 432.7" /><path d="M 224.2 421.8 L 202.4 421.8" /><path d="M 224.2 410.9 L 196.3 410.9" /><path d="M 224.2 400.0 L 184.2 400.0" /><path d="M 224.2 389.1 L 175.1 389.1" /><path d="M 224.2 378.2 L 166.0 378.2" /><path d="M 224.2 367.3 L 173.1 367.3" /><path d="M 224.2 356.4 L 167.0 356.4" /><path d="M 224.2 345.5 L 207.9 345.5" /><path d="M 224.2 334.6 L 168.7 334.6" /><path d="M 224.2 323.7 L 154.0 323.7" /><path d="M 224.2 312.8 L 154.7 312.8" /><path d="M 224.2 301.9 L 151.8 301.9" /><path d="M 224.2 291.0 L 211.1 291.0" /><path d="M 224.2 280.1 L 199.8 280.1" /><path d="M 224.2 269.2 L 200.6 269.2" /><path d="M 224.2 258.3 L 202.3 258.3" /><path d="M 224.2 247.4 L 207.5 247.4" /><path d="M 224.2 236.5 L 190.4 236.5" /><path d="M 224.2 225.6 L 186.5 225.6" /><path d="M 224.2 214.7 L 167.5 214.7" /><path d="M 224.2 203.8 L 187.4 203.8" /><path d="M 224.2 192.9 L 165.9 192.9" /><path d="M 224.2 182.0 L 170.5 182.0" /><path d="M 224.2 171.1 L 209.5 171.1" /><path d="M 224.2 160.2 L 187.7 160.2" /><path d="M 224.2 149.3 L 224.2 149.3" /><path d="M 224.2 138.4 L 192.6 138.4" /><path d="M 224.2 127.6 L 195.6 127.6" /><path d="M 224.2 116.7 L 170.3 116.7" /><path d="M 224.2 105.8 L 170.5 105.8" /><path d="M 224.2 94.9 L 190.9 94.9" /><path d="M 224.2 84.0 L 171.0 84.0" /><path d="M 224.2 73.1 L 166.2 73.1" /><path d="M 224.2 62.2 L 181.3 62.2" /></g><g class="toytree-NodeLabels" style="fill:rgb(14.9%,14.9%,14.9%);fill-opacity:1.0;font-size:9px;stroke:none"><g transform="translate(149.27,494.03)"><text>68</text></g><g transform="translate(163.28,439.54)"><text>100</text></g><g transform="translate(160.47,744.69)"><text>77</text></g><g transform="translate(158.40,722.89)"><text>100</text></g><g transform="translate(146.75,485.86)"><text>86</text></g><g transform="translate(157.77,431.37)"><text>100</text></g><g transform="translate(153.62,733.79)"><text>100</text></g><g transform="translate(167.30,668.40)"><text>100</text></g><g transform="translate(171.27,635.71)"><text>100</text></g><g transform="translate(173.76,603.01)"><text>78</text></g><g transform="translate(140.88,476.33)"><text>100</text></g><g transform="translate(149.53,421.84)"><text>100</text></g><g transform="translate(140.39,720.17)"><text>100</text></g><g transform="translate(140.75,690.20)"><text>100</text></g><g transform="translate(161.51,660.23)"><text>100</text></g><g transform="translate(162.37,627.53)"><text>100</text></g><g transform="translate(170.09,594.84)"><text>84</text></g><g transform="translate(135.70,466.11)"><text>100</text></g><g transform="translate(132.05,411.62)"><text>99</text></g><g transform="translate(138.66,232.48)"><text>80</text></g><g transform="translate(134.09,705.18)"><text>100</text></g><g transform="translate(155.97,643.88)"><text>100</text></g><g transform="translate(167.52,585.31)"><text>86</text></g><g transform="translate(152.46,548.52)"><text>100</text></g><g transform="translate(125.12,438.86)"><text>100</text></g><g transform="translate(127.56,385.05)"><text>100</text></g><g transform="translate(144.47,363.26)"><text>100</text></g><g transform="translate(173.96,297.87)"><text>53</text></g><g transform="translate(175.53,265.18)"><text>61</text></g><g transform="translate(131.83,224.31)"><text>30</text></g><g transform="translate(135.09,199.79)"><text>78</text></g><g transform="translate(157.31,167.09)"><text>69</text></g><g transform="translate(123.53,674.53)"><text>100</text></g><g transform="translate(162.86,575.09)"><text>100</text></g><g transform="translate(145.91,540.35)"><text>100</text></g><g transform="translate(151.39,515.83)"><text>100</text></g><g transform="translate(119.16,411.96)"><text>100</text></g><g transform="translate(133.57,355.09)"><text>100</text></g><g transform="translate(130.56,330.56)"><text>87</text></g><g transform="translate(167.61,289.70)"><text>100</text></g><g transform="translate(169.77,257.00)"><text>100</text></g><g transform="translate(125.30,212.05)"><text>26</text></g><g transform="translate(147.44,158.92)"><text>95</text></g><g transform="translate(114.44,624.81)"><text>100</text></g><g transform="translate(136.28,528.09)"><text>100</text></g><g transform="translate(112.67,383.52)"><text>100</text></g><g transform="translate(125.11,322.39)"><text>100</text></g><g transform="translate(157.85,273.35)"><text>100</text></g><g transform="translate(115.27,197.75)"><text>100</text></g><g transform="translate(139.25,149.39)"><text>97</text></g><g transform="translate(136.22,112.60)"><text>100</text></g><g transform="translate(106.79,576.45)"><text>100</text></g><g transform="translate(97.16,352.96)"><text>100</text></g><g transform="translate(85.45,235.55)"><text>100</text></g><g transform="translate(127.94,139.17)"><text>100</text></g><g transform="translate(118.21,104.43)"><text>100</text></g><g transform="translate(81.73,464.70)"><text>100</text></g><g transform="translate(77.62,187.36)"><text>100</text></g><g transform="translate(106.82,94.90)"><text>100</text></g><g transform="translate(66.35,326.03)"><text>100</text></g><g transform="translate(77.85,84.68)"><text>100</text></g></g><g class="toytree-TipLabels" style="fill:rgb(14.9%,14.9%,14.9%);fill-opacity:1.0;font-family:helvetica;font-size:11px;font-weight:normal;stroke:none;white-space:pre"><g transform="translate(224.25,737.84)rotate(0)"><text style="fill:rgb(98.8%,55.3%,38.4%);fill-opacity:1.0" x="15.00" y="2.81">S_bernardinus_NJ_4770</text></g><g transform="translate(224.25,726.94)rotate(0)"><text style="fill:rgb(98.8%,55.3%,38.4%);fill-opacity:1.0" x="15.00" y="2.81">S_bernardinus_NJ_4775</text></g><g transform="translate(224.25,716.04)rotate(0)"><text style="fill:rgb(98.8%,55.3%,38.4%);fill-opacity:1.0" x="15.00" y="2.81">S_bernardinus_White_8769</text></g><g transform="translate(224.25,705.14)rotate(0)"><text style="fill:rgb(98.8%,55.3%,38.4%);fill-opacity:1.0" x="15.00" y="2.81">S_bernardinus_NJ_3777</text></g><g transform="translate(224.25,694.25)rotate(0)"><text style="fill:rgb(98.8%,55.3%,38.4%);fill-opacity:1.0" x="15.00" y="2.81">S_bernardinus_NJ_4583</text></g><g transform="translate(224.25,683.35)rotate(0)"><text style="fill:rgb(98.8%,55.3%,38.4%);fill-opacity:1.0" x="15.00" y="2.81">S_bernardinus_e095</text></g><g transform="translate(224.25,672.45)rotate(0)"><text style="fill:rgb(98.8%,55.3%,38.4%);fill-opacity:1.0" x="15.00" y="2.81">S_bernardinus_NJ_3797</text></g><g transform="translate(224.25,661.55)rotate(0)"><text style="fill:rgb(40%,76.1%,64.7%);fill-opacity:1.0" x="15.00" y="2.81">S_medeirosii_NJ_2419b</text></g><g transform="translate(224.25,650.65)rotate(0)"><text style="fill:rgb(40%,76.1%,64.7%);fill-opacity:1.0" x="15.00" y="2.81">S_medeirosii_NJ_2419a</text></g><g transform="translate(224.25,639.76)rotate(0)"><text style="fill:rgb(40%,76.1%,64.7%);fill-opacity:1.0" x="15.00" y="2.81">S_medeirosii_NJ_525</text></g><g transform="translate(224.25,628.86)rotate(0)"><text style="fill:rgb(40%,76.1%,64.7%);fill-opacity:1.0" x="15.00" y="2.81">S_medeirosii_NJ_4764b</text></g><g transform="translate(224.25,617.96)rotate(0)"><text style="fill:rgb(40%,76.1%,64.7%);fill-opacity:1.0" x="15.00" y="2.81">S_medeirosii_NJ_4764a</text></g><g transform="translate(224.25,607.06)rotate(0)"><text style="fill:rgb(40%,76.1%,64.7%);fill-opacity:1.0" x="15.00" y="2.81">S_medeirosii_UCR_251770</text></g><g transform="translate(224.25,596.16)rotate(0)"><text style="fill:rgb(40%,40%,40%);fill-opacity:1.0" x="15.00" y="2.81">S_juneae_NJ_4774</text></g><g transform="translate(224.25,585.27)rotate(0)"><text style="fill:rgb(40%,40%,40%);fill-opacity:1.0" x="15.00" y="2.81">S_juneae_NJ_4772</text></g><g transform="translate(224.25,574.37)rotate(0)"><text style="fill:rgb(40%,40%,40%);fill-opacity:1.0" x="15.00" y="2.81">S_juneae_NJ_4773</text></g><g transform="translate(224.25,563.47)rotate(0)"><text style="fill:rgb(40%,40%,40%);fill-opacity:1.0" x="15.00" y="2.81">S_campestris_NJ_3784</text></g><g transform="translate(224.25,552.57)rotate(0)"><text style="fill:rgb(40%,40%,40%);fill-opacity:1.0" x="15.00" y="2.81">S_campestris_NJ_3785</text></g><g transform="translate(224.25,541.67)rotate(0)"><text style="fill:rgb(65.1%,46.3%,11.4%);fill-opacity:1.0" x="15.00" y="2.81">S_campestris_NJ_4626</text></g><g transform="translate(224.25,530.78)rotate(0)"><text style="fill:rgb(65.1%,46.3%,11.4%);fill-opacity:1.0" x="15.00" y="2.81">S_campestris_NJ_4627</text></g><g transform="translate(224.25,519.88)rotate(0)"><text style="fill:rgb(65.1%,46.3%,11.4%);fill-opacity:1.0" x="15.00" y="2.81">S_campestris_NJ_3800</text></g><g transform="translate(224.25,508.98)rotate(0)"><text style="fill:rgb(65.1%,46.3%,11.4%);fill-opacity:1.0" x="15.00" y="2.81">S_campestris_NJ_3793</text></g><g transform="translate(224.25,498.08)rotate(0)"><text style="fill:rgb(65.1%,46.3%,11.4%);fill-opacity:1.0" x="15.00" y="2.81">S_campestris_NJ_3791</text></g><g transform="translate(224.25,487.18)rotate(0)"><text style="fill:rgb(90.2%,67.1%,0.8%);fill-opacity:1.0" x="15.00" y="2.81">S_cordatus_nic262</text></g><g transform="translate(224.25,476.29)rotate(0)"><text style="fill:rgb(90.2%,67.1%,0.8%);fill-opacity:1.0" x="15.00" y="2.81">S_cordatus_NJ_3825</text></g><g transform="translate(224.25,465.39)rotate(0)"><text style="fill:rgb(90.2%,67.1%,0.8%);fill-opacity:1.0" x="15.00" y="2.81">S_cordatus_e086</text></g><g transform="translate(224.25,454.49)rotate(0)"><text style="fill:rgb(90.2%,67.1%,0.8%);fill-opacity:1.0" x="15.00" y="2.81">S_cordatus_e054</text></g><g transform="translate(224.25,443.59)rotate(0)"><text style="fill:rgb(90.2%,67.1%,0.8%);fill-opacity:1.0" x="15.00" y="2.81">S_cordatus_NJ_3818</text></g><g transform="translate(224.25,432.69)rotate(0)"><text style="fill:rgb(90.2%,67.1%,0.8%);fill-opacity:1.0" x="15.00" y="2.81">S_cordatus_NJ_1569</text></g><g transform="translate(224.25,421.80)rotate(0)"><text style="fill:rgb(90.2%,67.1%,0.8%);fill-opacity:1.0" x="15.00" y="2.81">S_cordatus_NJ_3686</text></g><g transform="translate(224.25,410.90)rotate(0)"><text style="fill:rgb(90.2%,67.1%,0.8%);fill-opacity:1.0" x="15.00" y="2.81">S_cordatus_NJ_3637</text></g><g transform="translate(224.25,400.00)rotate(0)"><text style="fill:rgb(90.2%,67.1%,0.8%);fill-opacity:1.0" x="15.00" y="2.81">S_cordatus_Bell_8389</text></g><g transform="translate(224.25,389.10)rotate(0)"><text style="fill:rgb(90.2%,67.1%,0.8%);fill-opacity:1.0" x="15.00" y="2.81">S_cordatus_Andre_12643</text></g><g transform="translate(224.25,378.20)rotate(0)"><text style="fill:rgb(90.2%,67.1%,0.8%);fill-opacity:1.0" x="15.00" y="2.81">S_cordatus_Hodgson_23698</text></g><g transform="translate(224.25,367.31)rotate(0)"><text style="fill:rgb(90.2%,67.1%,0.8%);fill-opacity:1.0" x="15.00" y="2.81">S_cordatus_Moore_3278</text></g><g transform="translate(224.25,356.41)rotate(0)"><text style="fill:rgb(90.2%,67.1%,0.8%);fill-opacity:1.0" x="15.00" y="2.81">S_cordatus_nic139</text></g><g transform="translate(224.25,345.51)rotate(0)"><text style="fill:rgb(90.2%,67.1%,0.8%);fill-opacity:1.0" x="15.00" y="2.81">S_cordatus_NJ_4387</text></g><g transform="translate(224.25,334.61)rotate(0)"><text style="fill:rgb(90.2%,67.1%,0.8%);fill-opacity:1.0" x="15.00" y="2.81">S_cordatus_Scord_Oregon</text></g><g transform="translate(224.25,323.71)rotate(0)"><text style="fill:rgb(40%,65.1%,11.8%);fill-opacity:1.0" x="15.00" y="2.81">S_oliganthus_NJ_3805</text></g><g transform="translate(224.25,312.82)rotate(0)"><text style="fill:rgb(40%,65.1%,11.8%);fill-opacity:1.0" x="15.00" y="2.81">S_oliganthus_RENO_18159</text></g><g transform="translate(224.25,301.92)rotate(0)"><text style="fill:rgb(40%,65.1%,11.8%);fill-opacity:1.0" x="15.00" y="2.81">S_oliganthus_NJ_3801</text></g><g transform="translate(224.25,291.02)rotate(0)"><text style="fill:rgb(90.6%,16.1%,54.1%);fill-opacity:1.0" x="15.00" y="2.81">S_barbatus_NJ_4394</text></g><g transform="translate(224.25,280.12)rotate(0)"><text style="fill:rgb(90.6%,16.1%,54.1%);fill-opacity:1.0" x="15.00" y="2.81">S_barbatus_Janeway_7367</text></g><g transform="translate(224.25,269.22)rotate(0)"><text style="fill:rgb(90.6%,16.1%,54.1%);fill-opacity:1.0" x="15.00" y="2.81">S_barbatus_NJ_4395</text></g><g transform="translate(224.25,258.33)rotate(0)"><text style="fill:rgb(90.6%,16.1%,54.1%);fill-opacity:1.0" x="15.00" y="2.81">S_barbatus_NJ_4393</text></g><g transform="translate(224.25,247.43)rotate(0)"><text style="fill:rgb(90.6%,16.1%,54.1%);fill-opacity:1.0" x="15.00" y="2.81">S_barbatus_NJ_4388</text></g><g transform="translate(224.25,236.53)rotate(0)"><text style="fill:rgb(90.6%,16.1%,54.1%);fill-opacity:1.0" x="15.00" y="2.81">S_barbatus_nic176</text></g><g transform="translate(224.25,225.63)rotate(0)"><text style="fill:rgb(45.9%,43.9%,70.2%);fill-opacity:1.0" x="15.00" y="2.81">S_longisiliquus_NJ_4398</text></g><g transform="translate(224.25,214.73)rotate(0)"><text style="fill:rgb(45.9%,43.9%,70.2%);fill-opacity:1.0" x="15.00" y="2.81">S_longisiliquus_nic180</text></g><g transform="translate(224.25,203.84)rotate(0)"><text style="fill:rgb(45.9%,43.9%,70.2%);fill-opacity:1.0" x="15.00" y="2.81">S_longisiliquus_NJ_4379</text></g><g transform="translate(224.25,192.94)rotate(0)"><text style="fill:rgb(45.9%,43.9%,70.2%);fill-opacity:1.0" x="15.00" y="2.81">S_longisiliquus_D116</text></g><g transform="translate(224.25,182.04)rotate(0)"><text style="fill:rgb(45.9%,43.9%,70.2%);fill-opacity:1.0" x="15.00" y="2.81">S_longisiliquus_e055</text></g><g transform="translate(224.25,171.14)rotate(0)"><text style="fill:rgb(45.9%,43.9%,70.2%);fill-opacity:1.0" x="15.00" y="2.81">S_longisiliquus_NJ_4399</text></g><g transform="translate(224.25,160.24)rotate(0)"><text style="fill:rgb(85.1%,37.3%,0.8%);fill-opacity:1.0" x="15.00" y="2.81">S_howellii_NJ_4385</text></g><g transform="translate(224.25,149.35)rotate(0)"><text style="fill:rgb(85.1%,37.3%,0.8%);fill-opacity:1.0" x="15.00" y="2.81">S_howellii_NJ_4382</text></g><g transform="translate(224.25,138.45)rotate(0)"><text style="fill:rgb(85.1%,37.3%,0.8%);fill-opacity:1.0" x="15.00" y="2.81">S_howellii_NJ_4386</text></g><g transform="translate(224.25,127.55)rotate(0)"><text style="fill:rgb(85.1%,37.3%,0.8%);fill-opacity:1.0" x="15.00" y="2.81">S_howellii_NJ_4383</text></g><g transform="translate(224.25,116.65)rotate(0)"><text style="fill:rgb(85.1%,37.3%,0.8%);fill-opacity:1.0" x="15.00" y="2.81">S_howellii_nic152</text></g><g transform="translate(224.25,105.75)rotate(0)"><text style="fill:rgb(10.6%,62%,46.7%);fill-opacity:1.0" x="15.00" y="2.81">S_glandulosus_e041</text></g><g transform="translate(224.25,94.86)rotate(0)"><text style="fill:rgb(10.6%,62%,46.7%);fill-opacity:1.0" x="15.00" y="2.81">S_glandulosus_nic202</text></g><g transform="translate(224.25,83.96)rotate(0)"><text style="fill:rgb(10.6%,62%,46.7%);fill-opacity:1.0" x="15.00" y="2.81">S_spnov_aarthur_NJ_0038</text></g><g transform="translate(224.25,73.06)rotate(0)"><text style="fill:rgb(10.6%,62%,46.7%);fill-opacity:1.0" x="15.00" y="2.81">S_glandulosus_d125</text></g><g transform="translate(224.25,62.16)rotate(0)"><text style="fill:rgb(10.6%,62%,46.7%);fill-opacity:1.0" x="15.00" y="2.81">S_glandulosus_albidus_d108A</text></g></g></g></g></g></svg>