<svg class="toyplot-canvas-Canvas" height="1200.0px" id="t199dd16759ab49279e1170faad2495d3" preserveAspectRatio="xMidYMid meet" style="background-color:transparent;border-color:#292724;border-style:none;border-width:1.0;fill:rgb(16.1%,15.3%,14.1%);fill-opacity:1.0;font-family:Helvetica;font-size:12px;opacity:1.0;stroke:rgb(16.1%,15.3%,14.1%);stroke-opacity:1.0;stroke-width:1.0" viewBox="0 0 500.0 1200.0" width="500.0px" xmlns="http://www.w3.org/2000/svg" xmlns:toyplot="http://www.sandia.gov/toyplot" xmlns:xlink="http://www.w3.org/1999/xlink"><g class="toyplot-coordinates-Cartesian" id="t284d2331f6654ec89d8bbbfadb5cbc6b"><clipPath id="t5ff5d8034ff64d96bcb98b9bdc6a86b0"><rect height="1140.0" width="440.0" x="30.0" y="30.0" /></clipPath><g clip-path="url(#t5ff5d8034ff64d96bcb98b9bdc6a86b0)"><g class="toytree-mark-Toytree" id="ta99fafa20dfd4bd79ee6261efb3cd9bf"><g class="toytree-Edges" style="fill:none;stroke:rgb(14.9%,14.9%,14.9%);stroke-linecap:round;stroke-opacity:1;stroke-width:2"><path d="M 51.3 125.2 L 51.3 76.7 L 75.3 76.7" id="196,195" style="stroke:rgb(90.6%,16.1%,54.1%);stroke-opacity:1.0" /><path d="M 51.3 125.2 L 51.3 173.7 L 85.3 173.7" id="196,194" /><path d="M 75.3 76.7 L 75.3 91.1 L 90.9 91.1" id="195,193" style="stroke:rgb(90.6%,16.1%,54.1%);stroke-opacity:1.0" /><path d="M 85.3 173.7 L 85.3 137.8 L 93.1 137.8" id="194,192" style="stroke:rgb(45.9%,43.9%,70.2%);stroke-opacity:1.0" /><path d="M 85.3 173.7 L 85.3 209.6 L 90.0 209.6" id="194,191" /><path d="M 90.9 91.1 L 90.9 78.8 L 190.8 78.8" id="193,190" style="stroke:rgb(90.6%,16.1%,54.1%);stroke-opacity:1.0" /><path d="M 90.9 91.1 L 90.9 103.5 L 104.1 103.5" id="193,189" style="stroke:rgb(90.6%,16.1%,54.1%);stroke-opacity:1.0" /><path d="M 93.1 137.8 L 93.1 147.4 L 100.2 147.4" id="192,188" style="stroke:rgb(45.9%,43.9%,70.2%);stroke-opacity:1.0" /><path d="M 90.0 209.6 L 90.0 247.2 L 93.4 247.2" id="191,187" /><path d="M 104.1 103.5 L 104.1 111.7 L 116.0 111.7" id="189,186" style="stroke:rgb(90.6%,16.1%,54.1%);stroke-opacity:1.0" /><path d="M 100.2 147.4 L 100.2 155.6 L 103.9 155.6" id="188,185" style="stroke:rgb(45.9%,43.9%,70.2%);stroke-opacity:1.0" /><path d="M 93.4 247.2 L 93.4 191.3 L 126.4 191.3" id="187,184" /><path d="M 93.4 247.2 L 93.4 303.1 L 98.5 303.1" id="187,183" /><path d="M 126.4 191.3 L 126.4 199.5 L 180.7 199.5" id="184,182" /><path d="M 98.5 303.1 L 98.5 226.2 L 104.3 226.2" id="183,181" style="stroke:rgb(40%,40%,40%);stroke-opacity:1.0" /><path d="M 98.5 303.1 L 98.5 380.0 L 103.2 380.0" id="183,180" /><path d="M 104.3 226.2 L 104.3 236.5 L 117.0 236.5" id="181,179" style="stroke:rgb(40%,40%,40%);stroke-opacity:1.0" /><path d="M 103.2 380.0 L 103.2 280.4 L 137.2 280.4" id="180,178" style="stroke:rgb(65.1%,46.3%,11.4%);stroke-opacity:1.0" /><path d="M 103.2 380.0 L 103.2 479.5 L 111.1 479.5" id="180,177" /><path d="M 117.0 236.5 L 117.0 246.1 L 135.8 246.1" id="179,176" style="stroke:rgb(40%,40%,40%);stroke-opacity:1.0" /><path d="M 137.2 280.4 L 137.2 290.0 L 144.5 290.0" id="178,175" style="stroke:rgb(65.1%,46.3%,11.4%);stroke-opacity:1.0" /><path d="M 111.1 479.5 L 111.1 369.9 L 118.3 369.9" id="177,174" style="stroke:rgb(90.2%,67.1%,0.8%);stroke-opacity:1.0" /><path d="M 111.1 479.5 L 111.1 589.1 L 121.2 589.1" id="177,173" /><path d="M 135.8 246.1 L 135.8 254.3 L 151.5 254.3" id="176,172" style="stroke:rgb(40%,40%,40%);stroke-opacity:1.0" /><path d="M 144.5 290.0 L 144.5 298.2 L 175.0 298.2" id="175,171" style="stroke:rgb(65.1%,46.3%,11.4%);stroke-opacity:1.0" /><path d="M 118.3 369.9 L 118.3 336.6 L 176.8 336.6" id="174,170" style="stroke:rgb(90.2%,67.1%,0.8%);stroke-opacity:1.0" /><path d="M 118.3 369.9 L 118.3 403.2 L 129.5 403.2" id="174,169" style="stroke:rgb(90.2%,67.1%,0.8%);stroke-opacity:1.0" /><path d="M 121.2 589.1 L 121.2 467.6 L 166.9 467.6" id="173,168" style="stroke:rgb(40%,65.1%,11.8%);stroke-opacity:1.0" /><path d="M 121.2 589.1 L 121.2 710.7 L 155.0 710.7" id="173,167" /><path d="M 176.8 336.6 L 176.8 320.2 L 185.9 320.2" id="170,166" style="stroke:rgb(90.2%,67.1%,0.8%);stroke-opacity:1.0" /><path d="M 176.8 336.6 L 176.8 353.1 L 191.4 353.1" id="170,165" style="stroke:rgb(90.2%,67.1%,0.8%);stroke-opacity:1.0" /><path d="M 129.5 403.2 L 129.5 386.0 L 267.9 386.0" id="169,164" style="stroke:rgb(90.2%,67.1%,0.8%);stroke-opacity:1.0" /><path d="M 129.5 403.2 L 129.5 420.3 L 173.3 420.3" id="169,163" style="stroke:rgb(90.2%,67.1%,0.8%);stroke-opacity:1.0" /><path d="M 166.9 467.6 L 166.9 477.9 L 196.8 477.9" id="168,162" style="stroke:rgb(40%,65.1%,11.8%);stroke-opacity:1.0" /><path d="M 155.0 710.7 L 155.0 571.0 L 166.6 571.0" id="167,161" style="stroke:rgb(85.1%,37.3%,0.8%);stroke-opacity:1.0" /><path d="M 155.0 710.7 L 155.0 850.3 L 170.9 850.3" id="167,160" style="stroke:rgb(10.6%,62%,46.7%);stroke-opacity:1.0" /><path d="M 191.4 353.1 L 191.4 342.1 L 262.4 342.1" id="165,159" style="stroke:rgb(90.2%,67.1%,0.8%);stroke-opacity:1.0" /><path d="M 191.4 353.1 L 191.4 364.1 L 232.0 364.1" id="165,158" style="stroke:rgb(90.2%,67.1%,0.8%);stroke-opacity:1.0" /><path d="M 173.3 420.3 L 173.3 408.0 L 183.8 408.0" id="163,157" style="stroke:rgb(90.2%,67.1%,0.8%);stroke-opacity:1.0" /><path d="M 173.3 420.3 L 173.3 432.7 L 210.9 432.7" id="163,156" style="stroke:rgb(90.2%,67.1%,0.8%);stroke-opacity:1.0" /><path d="M 196.8 477.9 L 196.8 487.5 L 208.6 487.5" id="162,155" style="stroke:rgb(40%,65.1%,11.8%);stroke-opacity:1.0" /><path d="M 166.6 571.0 L 166.6 522.5 L 218.6 522.5" id="161,154" style="stroke:rgb(85.1%,37.3%,0.8%);stroke-opacity:1.0" /><path d="M 166.6 571.0 L 166.6 619.5 L 174.7 619.5" id="161,153" style="stroke:rgb(85.1%,37.3%,0.8%);stroke-opacity:1.0" /><path d="M 170.9 850.3 L 170.9 737.8 L 186.8 737.8" id="160,152" style="stroke:rgb(10.6%,62%,46.7%);stroke-opacity:1.0" /><path d="M 170.9 850.3 L 170.9 962.8 L 196.8 962.8" id="160,151" style="stroke:rgb(10.6%,62%,46.7%);stroke-opacity:1.0" /><path d="M 210.9 432.7 L 210.9 440.9 L 231.3 440.9" id="156,150" style="stroke:rgb(90.2%,67.1%,0.8%);stroke-opacity:1.0" /><path d="M 208.6 487.5 L 208.6 495.8 L 227.2 495.8" id="155,149" style="stroke:rgb(40%,65.1%,11.8%);stroke-opacity:1.0" /><path d="M 218.6 522.5 L 218.6 532.8 L 227.7 532.8" id="154,148" style="stroke:rgb(85.1%,37.3%,0.8%);stroke-opacity:1.0" /><path d="M 174.7 619.5 L 174.7 581.5 L 205.5 581.5" id="153,147" style="stroke:rgb(85.1%,37.3%,0.8%);stroke-opacity:1.0" /><path d="M 174.7 619.5 L 174.7 657.6 L 249.5 657.6" id="153,146" style="stroke:rgb(85.1%,37.3%,0.8%);stroke-opacity:1.0" /><path d="M 186.8 737.8 L 186.8 707.0 L 215.7 707.0" id="152,145" style="stroke:rgb(10.6%,62%,46.7%);stroke-opacity:1.0" /><path d="M 186.8 737.8 L 186.8 768.5 L 202.8 768.5" id="152,144" style="stroke:rgb(10.6%,62%,46.7%);stroke-opacity:1.0" /><path d="M 196.8 962.8 L 196.8 914.1 L 227.2 914.1" id="151,143" style="stroke:rgb(10.6%,62%,46.7%);stroke-opacity:1.0" /><path d="M 196.8 962.8 L 196.8 1011.5 L 204.7 1011.5" id="151,142" style="stroke:rgb(10.6%,62%,46.7%);stroke-opacity:1.0" /><path d="M 227.7 532.8 L 227.7 542.4 L 236.2 542.4" id="148,141" style="stroke:rgb(85.1%,37.3%,0.8%);stroke-opacity:1.0" /><path d="M 205.5 581.5 L 205.5 595.9 L 213.3 595.9" id="147,140" style="stroke:rgb(85.1%,37.3%,0.8%);stroke-opacity:1.0" /><path d="M 249.5 657.6 L 249.5 641.1 L 261.8 641.1" id="146,139" style="stroke:rgb(85.1%,37.3%,0.8%);stroke-opacity:1.0" /><path d="M 249.5 657.6 L 249.5 674.1 L 259.6 674.1" id="146,138" style="stroke:rgb(85.1%,37.3%,0.8%);stroke-opacity:1.0" /><path d="M 215.7 707.0 L 215.7 715.2 L 218.7 715.2" id="145,137" style="stroke:rgb(10.6%,62%,46.7%);stroke-opacity:1.0" /><path d="M 202.8 768.5 L 202.8 739.9 L 224.4 739.9" id="144,136" style="stroke:rgb(10.6%,62%,46.7%);stroke-opacity:1.0" /><path d="M 202.8 768.5 L 202.8 797.2 L 209.5 797.2" id="144,135" style="stroke:rgb(10.6%,62%,46.7%);stroke-opacity:1.0" /><path d="M 227.2 914.1 L 227.2 901.8 L 242.8 901.8" id="143,134" style="stroke:rgb(10.6%,62%,46.7%);stroke-opacity:1.0" /><path d="M 227.2 914.1 L 227.2 926.4 L 237.2 926.4" id="143,133" style="stroke:rgb(10.6%,62%,46.7%);stroke-opacity:1.0" /><path d="M 204.7 1011.5 L 204.7 961.4 L 254.7 961.4" id="142,132" style="stroke:rgb(10.6%,62%,46.7%);stroke-opacity:1.0" /><path d="M 204.7 1011.5 L 204.7 1061.6 L 214.1 1061.6" id="142,131" style="stroke:rgb(10.6%,62%,46.7%);stroke-opacity:1.0" /><path d="M 236.2 542.4 L 236.2 550.6 L 246.4 550.6" id="141,130" style="stroke:rgb(85.1%,37.3%,0.8%);stroke-opacity:1.0" /><path d="M 213.3 595.9 L 213.3 583.5 L 223.4 583.5" id="140,129" style="stroke:rgb(85.1%,37.3%,0.8%);stroke-opacity:1.0" /><path d="M 213.3 595.9 L 213.3 608.2 L 220.0 608.2" id="140,128" style="stroke:rgb(85.1%,37.3%,0.8%);stroke-opacity:1.0" /><path d="M 261.8 641.1 L 261.8 649.4 L 265.2 649.4" id="139,127" style="stroke:rgb(85.1%,37.3%,0.8%);stroke-opacity:1.0" /><path d="M 259.6 674.1 L 259.6 682.3 L 263.6 682.3" id="138,126" style="stroke:rgb(85.1%,37.3%,0.8%);stroke-opacity:1.0" /><path d="M 224.4 739.9 L 224.4 748.1 L 235.7 748.1" id="136,125" style="stroke:rgb(10.6%,62%,46.7%);stroke-opacity:1.0" /><path d="M 209.5 797.2 L 209.5 770.1 L 218.2 770.1" id="135,124" style="stroke:rgb(10.6%,62%,46.7%);stroke-opacity:1.0" /><path d="M 209.5 797.2 L 209.5 824.3 L 215.7 824.3" id="135,123" style="stroke:rgb(10.6%,62%,46.7%);stroke-opacity:1.0" /><path d="M 237.2 926.4 L 237.2 934.7 L 243.9 934.7" id="133,122" style="stroke:rgb(10.6%,62%,46.7%);stroke-opacity:1.0" /><path d="M 254.7 961.4 L 254.7 971.7 L 256.9 971.7" id="132,121" style="stroke:rgb(10.6%,62%,46.7%);stroke-opacity:1.0" /><path d="M 214.1 1061.6 L 214.1 1030.7 L 247.6 1030.7" id="131,120" style="stroke:rgb(10.6%,62%,46.7%);stroke-opacity:1.0" /><path d="M 214.1 1061.6 L 214.1 1092.4 L 225.0 1092.4" id="131,119" style="stroke:rgb(10.6%,62%,46.7%);stroke-opacity:1.0" /><path d="M 220.0 608.2 L 220.0 616.5 L 227.1 616.5" id="128,118" style="stroke:rgb(85.1%,37.3%,0.8%);stroke-opacity:1.0" /><path d="M 215.7 824.3 L 215.7 796.8 L 220.3 796.8" id="123,117" style="stroke:rgb(10.6%,62%,46.7%);stroke-opacity:1.0" /><path d="M 215.7 824.3 L 215.7 851.7 L 226.6 851.7" id="123,116" style="stroke:rgb(10.6%,62%,46.7%);stroke-opacity:1.0" /><path d="M 256.9 971.7 L 256.9 981.3 L 259.6 981.3" id="121,115" style="stroke:rgb(10.6%,62%,46.7%);stroke-opacity:1.0" /><path d="M 247.6 1030.7 L 247.6 1014.2 L 254.2 1014.2" id="120,114" style="stroke:rgb(10.6%,62%,46.7%);stroke-opacity:1.0" /><path d="M 247.6 1030.7 L 247.6 1047.2 L 253.3 1047.2" id="120,113" style="stroke:rgb(10.6%,62%,46.7%);stroke-opacity:1.0" /><path d="M 225.0 1092.4 L 225.0 1077.3 L 231.8 1077.3" id="119,112" style="stroke:rgb(10.6%,62%,46.7%);stroke-opacity:1.0" /><path d="M 225.0 1092.4 L 225.0 1107.5 L 231.5 1107.5" id="119,111" style="stroke:rgb(10.6%,62%,46.7%);stroke-opacity:1.0" /><path d="M 220.3 796.8 L 220.3 807.1 L 240.9 807.1" id="117,110" style="stroke:rgb(10.6%,62%,46.7%);stroke-opacity:1.0" /><path d="M 226.6 851.7 L 226.6 862.0 L 232.0 862.0" id="116,109" style="stroke:rgb(10.6%,62%,46.7%);stroke-opacity:1.0" /><path d="M 259.6 981.3 L 259.6 989.5 L 263.3 989.5" id="115,108" style="stroke:rgb(10.6%,62%,46.7%);stroke-opacity:1.0" /><path d="M 254.2 1014.2 L 254.2 1022.5 L 263.4 1022.5" id="114,107" style="stroke:rgb(10.6%,62%,46.7%);stroke-opacity:1.0" /><path d="M 253.3 1047.2 L 253.3 1055.4 L 259.3 1055.4" id="113,106" style="stroke:rgb(10.6%,62%,46.7%);stroke-opacity:1.0" /><path d="M 231.5 1107.5 L 231.5 1121.2 L 245.1 1121.2" id="111,105" style="stroke:rgb(10.6%,62%,46.7%);stroke-opacity:1.0" /><path d="M 240.9 807.1 L 240.9 816.7 L 249.4 816.7" id="110,104" style="stroke:rgb(10.6%,62%,46.7%);stroke-opacity:1.0" /><path d="M 232.0 862.0 L 232.0 871.6 L 235.5 871.6" id="109,103" style="stroke:rgb(10.6%,62%,46.7%);stroke-opacity:1.0" /><path d="M 245.1 1121.2 L 245.1 1110.2 L 250.1 1110.2" id="105,102" style="stroke:rgb(10.6%,62%,46.7%);stroke-opacity:1.0" /><path d="M 245.1 1121.2 L 245.1 1132.2 L 249.6 1132.2" id="105,101" style="stroke:rgb(10.6%,62%,46.7%);stroke-opacity:1.0" /><path d="M 249.4 816.7 L 249.4 824.9 L 255.1 824.9" id="104,100" style="stroke:rgb(10.6%,62%,46.7%);stroke-opacity:1.0" /><path d="M 235.5 871.6 L 235.5 879.8 L 238.1 879.8" id="103,99" style="stroke:rgb(10.6%,62%,46.7%);stroke-opacity:1.0" /><path d="M 75.3 76.7 L 75.3 62.3 L 206.6 62.3" id="195,98" style="stroke:rgb(90.6%,16.1%,54.1%);stroke-opacity:1.0" /><path d="M 190.8 78.8 L 190.8 73.3 L 202.7 73.3" id="190,97" style="stroke:rgb(90.6%,16.1%,54.1%);stroke-opacity:1.0" /><path d="M 190.8 78.8 L 190.8 84.3 L 203.1 84.3" id="190,96" style="stroke:rgb(90.6%,16.1%,54.1%);stroke-opacity:1.0" /><path d="M 104.1 103.5 L 104.1 95.2 L 230.3 95.2" id="189,95" style="stroke:rgb(90.6%,16.1%,54.1%);stroke-opacity:1.0" /><path d="M 116.0 111.7 L 116.0 106.2 L 177.0 106.2" id="186,94" style="stroke:rgb(90.6%,16.1%,54.1%);stroke-opacity:1.0" /><path d="M 116.0 111.7 L 116.0 117.2 L 167.9 117.2" id="186,93" style="stroke:rgb(90.6%,16.1%,54.1%);stroke-opacity:1.0" /><path d="M 93.1 137.8 L 93.1 128.2 L 196.8 128.2" id="192,92" style="stroke:rgb(45.9%,43.9%,70.2%);stroke-opacity:1.0" /><path d="M 100.2 147.4 L 100.2 139.1 L 185.2 139.1" id="188,91" style="stroke:rgb(45.9%,43.9%,70.2%);stroke-opacity:1.0" /><path d="M 103.9 155.6 L 103.9 150.1 L 171.0 150.1" id="185,90" style="stroke:rgb(45.9%,43.9%,70.2%);stroke-opacity:1.0" /><path d="M 103.9 155.6 L 103.9 161.1 L 143.7 161.1" id="185,89" style="stroke:rgb(45.9%,43.9%,70.2%);stroke-opacity:1.0" /><path d="M 90.0 209.6 L 90.0 172.0 L 167.8 172.0" id="191,88" /><path d="M 126.4 191.3 L 126.4 183.0 L 185.9 183.0" id="184,87" /><path d="M 180.7 199.5 L 180.7 194.0 L 216.4 194.0" id="182,86" /><path d="M 180.7 199.5 L 180.7 205.0 L 191.4 205.0" id="182,85" /><path d="M 104.3 226.2 L 104.3 215.9 L 275.6 215.9" id="181,84" style="stroke:rgb(40%,40%,40%);stroke-opacity:1.0" /><path d="M 117.0 236.5 L 117.0 226.9 L 197.2 226.9" id="179,83" style="stroke:rgb(40%,40%,40%);stroke-opacity:1.0" /><path d="M 135.8 246.1 L 135.8 237.9 L 231.6 237.9" id="176,82" style="stroke:rgb(40%,40%,40%);stroke-opacity:1.0" /><path d="M 151.5 254.3 L 151.5 248.9 L 243.6 248.9" id="172,81" style="stroke:rgb(40%,40%,40%);stroke-opacity:1.0" /><path d="M 151.5 254.3 L 151.5 259.8 L 273.3 259.8" id="172,80" style="stroke:rgb(40%,40%,40%);stroke-opacity:1.0" /><path d="M 137.2 280.4 L 137.2 270.8 L 178.8 270.8" id="178,79" style="stroke:rgb(65.1%,46.3%,11.4%);stroke-opacity:1.0" /><path d="M 144.5 290.0 L 144.5 281.8 L 188.8 281.8" id="175,78" style="stroke:rgb(65.1%,46.3%,11.4%);stroke-opacity:1.0" /><path d="M 175.0 298.2 L 175.0 292.8 L 219.0 292.8" id="171,77" style="stroke:rgb(65.1%,46.3%,11.4%);stroke-opacity:1.0" /><path d="M 175.0 298.2 L 175.0 303.7 L 197.2 303.7" id="171,76" style="stroke:rgb(65.1%,46.3%,11.4%);stroke-opacity:1.0" /><path d="M 185.9 320.2 L 185.9 314.7 L 281.0 314.7" id="166,75" style="stroke:rgb(90.2%,67.1%,0.8%);stroke-opacity:1.0" /><path d="M 185.9 320.2 L 185.9 325.7 L 234.9 325.7" id="166,74" style="stroke:rgb(90.2%,67.1%,0.8%);stroke-opacity:1.0" /><path d="M 262.4 342.1 L 262.4 336.6 L 292.7 336.6" id="159,73" style="stroke:rgb(90.2%,67.1%,0.8%);stroke-opacity:1.0" /><path d="M 262.4 342.1 L 262.4 347.6 L 271.5 347.6" id="159,72" style="stroke:rgb(90.2%,67.1%,0.8%);stroke-opacity:1.0" /><path d="M 232.0 364.1 L 232.0 358.6 L 268.3 358.6" id="158,71" style="stroke:rgb(90.2%,67.1%,0.8%);stroke-opacity:1.0" /><path d="M 232.0 364.1 L 232.0 369.6 L 261.6 369.6" id="158,70" style="stroke:rgb(90.2%,67.1%,0.8%);stroke-opacity:1.0" /><path d="M 267.9 386.0 L 267.9 380.5 L 311.2 380.5" id="164,69" style="stroke:rgb(90.2%,67.1%,0.8%);stroke-opacity:1.0" /><path d="M 267.9 386.0 L 267.9 391.5 L 281.0 391.5" id="164,68" style="stroke:rgb(90.2%,67.1%,0.8%);stroke-opacity:1.0" /><path d="M 183.8 408.0 L 183.8 402.5 L 248.8 402.5" id="157,67" style="stroke:rgb(90.2%,67.1%,0.8%);stroke-opacity:1.0" /><path d="M 183.8 408.0 L 183.8 413.5 L 248.7 413.5" id="157,66" style="stroke:rgb(90.2%,67.1%,0.8%);stroke-opacity:1.0" /><path d="M 210.9 432.7 L 210.9 424.4 L 275.5 424.4" id="156,65" style="stroke:rgb(90.2%,67.1%,0.8%);stroke-opacity:1.0" /><path d="M 231.3 440.9 L 231.3 435.4 L 258.9 435.4" id="150,64" style="stroke:rgb(90.2%,67.1%,0.8%);stroke-opacity:1.0" /><path d="M 231.3 440.9 L 231.3 446.4 L 274.8 446.4" id="150,63" style="stroke:rgb(90.2%,67.1%,0.8%);stroke-opacity:1.0" /><path d="M 166.9 467.6 L 166.9 457.3 L 255.6 457.3" id="168,62" style="stroke:rgb(40%,65.1%,11.8%);stroke-opacity:1.0" /><path d="M 196.8 477.9 L 196.8 468.3 L 240.1 468.3" id="162,61" style="stroke:rgb(40%,65.1%,11.8%);stroke-opacity:1.0" /><path d="M 208.6 487.5 L 208.6 479.3 L 245.0 479.3" id="155,60" style="stroke:rgb(40%,65.1%,11.8%);stroke-opacity:1.0" /><path d="M 227.2 495.8 L 227.2 490.3 L 265.5 490.3" id="149,59" style="stroke:rgb(40%,65.1%,11.8%);stroke-opacity:1.0" /><path d="M 227.2 495.8 L 227.2 501.2 L 244.5 501.2" id="149,58" style="stroke:rgb(40%,65.1%,11.8%);stroke-opacity:1.0" /><path d="M 218.6 522.5 L 218.6 512.2 L 244.2 512.2" id="154,57" style="stroke:rgb(85.1%,37.3%,0.8%);stroke-opacity:1.0" /><path d="M 227.7 532.8 L 227.7 523.2 L 270.4 523.2" id="148,56" style="stroke:rgb(85.1%,37.3%,0.8%);stroke-opacity:1.0" /><path d="M 236.2 542.4 L 236.2 534.2 L 267.3 534.2" id="141,55" style="stroke:rgb(85.1%,37.3%,0.8%);stroke-opacity:1.0" /><path d="M 246.4 550.6 L 246.4 545.1 L 300.0 545.1" id="130,54" style="stroke:rgb(85.1%,37.3%,0.8%);stroke-opacity:1.0" /><path d="M 246.4 550.6 L 246.4 556.1 L 262.2 556.1" id="130,53" style="stroke:rgb(85.1%,37.3%,0.8%);stroke-opacity:1.0" /><path d="M 205.5 581.5 L 205.5 567.1 L 284.7 567.1" id="147,52" style="stroke:rgb(85.1%,37.3%,0.8%);stroke-opacity:1.0" /><path d="M 223.4 583.5 L 223.4 578.1 L 244.5 578.1" id="129,51" style="stroke:rgb(85.1%,37.3%,0.8%);stroke-opacity:1.0" /><path d="M 223.4 583.5 L 223.4 589.0 L 239.8 589.0" id="129,50" style="stroke:rgb(85.1%,37.3%,0.8%);stroke-opacity:1.0" /><path d="M 220.0 608.2 L 220.0 600.0 L 261.9 600.0" id="128,49" style="stroke:rgb(85.1%,37.3%,0.8%);stroke-opacity:1.0" /><path d="M 227.1 616.5 L 227.1 611.0 L 241.4 611.0" id="118,48" style="stroke:rgb(85.1%,37.3%,0.8%);stroke-opacity:1.0" /><path d="M 227.1 616.5 L 227.1 621.9 L 261.0 621.9" id="118,47" style="stroke:rgb(85.1%,37.3%,0.8%);stroke-opacity:1.0" /><path d="M 261.8 641.1 L 261.8 632.9 L 265.0 632.9" id="139,46" style="stroke:rgb(85.1%,37.3%,0.8%);stroke-opacity:1.0" /><path d="M 265.2 649.4 L 265.2 643.9 L 282.7 643.9" id="127,45" style="stroke:rgb(85.1%,37.3%,0.8%);stroke-opacity:1.0" /><path d="M 265.2 649.4 L 265.2 654.9 L 277.3 654.9" id="127,44" style="stroke:rgb(85.1%,37.3%,0.8%);stroke-opacity:1.0" /><path d="M 259.6 674.1 L 259.6 665.8 L 275.6 665.8" id="138,43" style="stroke:rgb(85.1%,37.3%,0.8%);stroke-opacity:1.0" /><path d="M 263.6 682.3 L 263.6 676.8 L 274.7 676.8" id="126,42" style="stroke:rgb(85.1%,37.3%,0.8%);stroke-opacity:1.0" /><path d="M 263.6 682.3 L 263.6 687.8 L 286.4 687.8" id="126,41" style="stroke:rgb(85.1%,37.3%,0.8%);stroke-opacity:1.0" /><path d="M 215.7 707.0 L 215.7 698.8 L 225.2 698.8" id="145,40" style="stroke:rgb(10.6%,62%,46.7%);stroke-opacity:1.0" /><path d="M 218.7 715.2 L 218.7 709.7 L 228.2 709.7" id="137,39" style="stroke:rgb(10.6%,62%,46.7%);stroke-opacity:1.0" /><path d="M 218.7 715.2 L 218.7 720.7 L 227.4 720.7" id="137,38" style="stroke:rgb(10.6%,62%,46.7%);stroke-opacity:1.0" /><path d="M 224.4 739.9 L 224.4 731.7 L 242.6 731.7" id="136,37" style="stroke:rgb(10.6%,62%,46.7%);stroke-opacity:1.0" /><path d="M 235.7 748.1 L 235.7 742.7 L 283.1 742.7" id="125,36" style="stroke:rgb(10.6%,62%,46.7%);stroke-opacity:1.0" /><path d="M 235.7 748.1 L 235.7 753.6 L 240.8 753.6" id="125,35" style="stroke:rgb(10.6%,62%,46.7%);stroke-opacity:1.0" /><path d="M 218.2 770.1 L 218.2 764.6 L 247.1 764.6" id="124,34" style="stroke:rgb(10.6%,62%,46.7%);stroke-opacity:1.0" /><path d="M 218.2 770.1 L 218.2 775.6 L 239.9 775.6" id="124,33" style="stroke:rgb(10.6%,62%,46.7%);stroke-opacity:1.0" /><path d="M 220.3 796.8 L 220.3 786.5 L 249.3 786.5" id="117,32" style="stroke:rgb(10.6%,62%,46.7%);stroke-opacity:1.0" /><path d="M 240.9 807.1 L 240.9 797.5 L 258.7 797.5" id="110,31" style="stroke:rgb(10.6%,62%,46.7%);stroke-opacity:1.0" /><path d="M 249.4 816.7 L 249.4 808.5 L 271.1 808.5" id="104,30" style="stroke:rgb(10.6%,62%,46.7%);stroke-opacity:1.0" /><path d="M 255.1 824.9 L 255.1 819.5 L 277.5 819.5" id="100,29" style="stroke:rgb(10.6%,62%,46.7%);stroke-opacity:1.0" /><path d="M 255.1 824.9 L 255.1 830.4 L 273.2 830.4" id="100,28" style="stroke:rgb(10.6%,62%,46.7%);stroke-opacity:1.0" /><path d="M 226.6 851.7 L 226.6 841.4 L 260.8 841.4" id="116,27" style="stroke:rgb(10.6%,62%,46.7%);stroke-opacity:1.0" /><path d="M 232.0 862.0 L 232.0 852.4 L 246.1 852.4" id="109,26" style="stroke:rgb(10.6%,62%,46.7%);stroke-opacity:1.0" /><path d="M 235.5 871.6 L 235.5 863.4 L 243.2 863.4" id="103,25" style="stroke:rgb(10.6%,62%,46.7%);stroke-opacity:1.0" /><path d="M 238.1 879.8 L 238.1 874.3 L 255.2 874.3" id="99,24" style="stroke:rgb(10.6%,62%,46.7%);stroke-opacity:1.0" /><path d="M 238.1 879.8 L 238.1 885.3 L 247.0 885.3" id="99,23" style="stroke:rgb(10.6%,62%,46.7%);stroke-opacity:1.0" /><path d="M 242.8 901.8 L 242.8 896.3 L 272.1 896.3" id="134,22" style="stroke:rgb(10.6%,62%,46.7%);stroke-opacity:1.0" /><path d="M 242.8 901.8 L 242.8 907.2 L 254.1 907.2" id="134,21" style="stroke:rgb(10.6%,62%,46.7%);stroke-opacity:1.0" /><path d="M 237.2 926.4 L 237.2 918.2 L 241.8 918.2" id="133,20" style="stroke:rgb(10.6%,62%,46.7%);stroke-opacity:1.0" /><path d="M 243.9 934.7 L 243.9 929.2 L 281.4 929.2" id="122,19" style="stroke:rgb(10.6%,62%,46.7%);stroke-opacity:1.0" /><path d="M 243.9 934.7 L 243.9 940.2 L 288.8 940.2" id="122,18" style="stroke:rgb(10.6%,62%,46.7%);stroke-opacity:1.0" /><path d="M 254.7 961.4 L 254.7 951.1 L 260.2 951.1" id="132,17" style="stroke:rgb(10.6%,62%,46.7%);stroke-opacity:1.0" /><path d="M 256.9 971.7 L 256.9 962.1 L 259.3 962.1" id="121,16" style="stroke:rgb(10.6%,62%,46.7%);stroke-opacity:1.0" /><path d="M 259.6 981.3 L 259.6 973.1 L 273.6 973.1" id="115,15" style="stroke:rgb(10.6%,62%,46.7%);stroke-opacity:1.0" /><path d="M 263.3 989.5 L 263.3 984.1 L 270.7 984.1" id="108,14" style="stroke:rgb(10.6%,62%,46.7%);stroke-opacity:1.0" /><path d="M 263.3 989.5 L 263.3 995.0 L 275.2 995.0" id="108,13" style="stroke:rgb(10.6%,62%,46.7%);stroke-opacity:1.0" /><path d="M 254.2 1014.2 L 254.2 1006.0 L 260.9 1006.0" id="114,12" style="stroke:rgb(10.6%,62%,46.7%);stroke-opacity:1.0" /><path d="M 263.4 1022.5 L 263.4 1017.0 L 268.9 1017.0" id="107,11" style="stroke:rgb(10.6%,62%,46.7%);stroke-opacity:1.0" /><path d="M 263.4 1022.5 L 263.4 1028.0 L 280.6 1028.0" id="107,10" style="stroke:rgb(10.6%,62%,46.7%);stroke-opacity:1.0" /><path d="M 253.3 1047.2 L 253.3 1038.9 L 260.0 1038.9" id="113,9" style="stroke:rgb(10.6%,62%,46.7%);stroke-opacity:1.0" /><path d="M 259.3 1055.4 L 259.3 1049.9 L 264.9 1049.9" id="106,8" style="stroke:rgb(10.6%,62%,46.7%);stroke-opacity:1.0" /><path d="M 259.3 1055.4 L 259.3 1060.9 L 270.1 1060.9" id="106,7" style="stroke:rgb(10.6%,62%,46.7%);stroke-opacity:1.0" /><path d="M 231.8 1077.3 L 231.8 1071.8 L 252.1 1071.8" id="112,6" style="stroke:rgb(10.6%,62%,46.7%);stroke-opacity:1.0" /><path d="M 231.8 1077.3 L 231.8 1082.8 L 242.7 1082.8" id="112,5" style="stroke:rgb(10.6%,62%,46.7%);stroke-opacity:1.0" /><path d="M 231.5 1107.5 L 231.5 1093.8 L 256.8 1093.8" id="111,4" style="stroke:rgb(10.6%,62%,46.7%);stroke-opacity:1.0" /><path d="M 250.1 1110.2 L 250.1 1104.8 L 253.8 1104.8" id="102,3" style="stroke:rgb(10.6%,62%,46.7%);stroke-opacity:1.0" /><path d="M 250.1 1110.2 L 250.1 1115.7 L 260.4 1115.7" id="102,2" style="stroke:rgb(10.6%,62%,46.7%);stroke-opacity:1.0" /><path d="M 249.6 1132.2 L 249.6 1126.7 L 265.2 1126.7" id="101,1" style="stroke:rgb(10.6%,62%,46.7%);stroke-opacity:1.0" /><path d="M 249.6 1132.2 L 249.6 1137.7 L 263.5 1137.7" id="101,0" style="stroke:rgb(10.6%,62%,46.7%);stroke-opacity:1.0" /></g><g class="toytree-AlignEdges" style="stroke:rgb(66.3%,66.3%,66.3%);stroke-dasharray:2, 4;stroke-linecap:round;stroke-opacity:1.0;stroke-width:2"><path d="M 311.2 1137.7 L 263.5 1137.7" /><path d="M 311.2 1126.7 L 265.2 1126.7" /><path d="M 311.2 1115.7 L 260.4 1115.7" /><path d="M 311.2 1104.8 L 253.8 1104.8" /><path d="M 311.2 1093.8 L 256.8 1093.8" /><path d="M 311.2 1082.8 L 242.7 1082.8" /><path d="M 311.2 1071.8 L 252.1 1071.8" /><path d="M 311.2 1060.9 L 270.1 1060.9" /><path d="M 311.2 1049.9 L 264.9 1049.9" /><path d="M 311.2 1038.9 L 260.0 1038.9" /><path d="M 311.2 1028.0 L 280.6 1028.0" /><path d="M 311.2 1017.0 L 268.9 1017.0" /><path d="M 311.2 1006.0 L 260.9 1006.0" /><path d="M 311.2 995.0 L 275.2 995.0" /><path d="M 311.2 984.1 L 270.7 984.1" /><path d="M 311.2 973.1 L 273.6 973.1" /><path d="M 311.2 962.1 L 259.3 962.1" /><path d="M 311.2 951.1 L 260.2 951.1" /><path d="M 311.2 940.2 L 288.8 940.2" /><path d="M 311.2 929.2 L 281.4 929.2" /><path d="M 311.2 918.2 L 241.8 918.2" /><path d="M 311.2 907.2 L 254.1 907.2" /><path d="M 311.2 896.3 L 272.1 896.3" /><path d="M 311.2 885.3 L 247.0 885.3" /><path d="M 311.2 874.3 L 255.2 874.3" /><path d="M 311.2 863.4 L 243.2 863.4" /><path d="M 311.2 852.4 L 246.1 852.4" /><path d="M 311.2 841.4 L 260.8 841.4" /><path d="M 311.2 830.4 L 273.2 830.4" /><path d="M 311.2 819.5 L 277.5 819.5" /><path d="M 311.2 808.5 L 271.1 808.5" /><path d="M 311.2 797.5 L 258.7 797.5" /><path d="M 311.2 786.5 L 249.3 786.5" /><path d="M 311.2 775.6 L 239.9 775.6" /><path d="M 311.2 764.6 L 247.1 764.6" /><path d="M 311.2 753.6 L 240.8 753.6" /><path d="M 311.2 742.7 L 283.1 742.7" /><path d="M 311.2 731.7 L 242.6 731.7" /><path d="M 311.2 720.7 L 227.4 720.7" /><path d="M 311.2 709.7 L 228.2 709.7" /><path d="M 311.2 698.8 L 225.2 698.8" /><path d="M 311.2 687.8 L 286.4 687.8" /><path d="M 311.2 676.8 L 274.7 676.8" /><path d="M 311.2 665.8 L 275.6 665.8" /><path d="M 311.2 654.9 L 277.3 654.9" /><path d="M 311.2 643.9 L 282.7 643.9" /><path d="M 311.2 632.9 L 265.0 632.9" /><path d="M 311.2 621.9 L 261.0 621.9" /><path d="M 311.2 611.0 L 241.4 611.0" /><path d="M 311.2 600.0 L 261.9 600.0" /><path d="M 311.2 589.0 L 239.8 589.0" /><path d="M 311.2 578.1 L 244.5 578.1" /><path d="M 311.2 567.1 L 284.7 567.1" /><path d="M 311.2 556.1 L 262.2 556.1" /><path d="M 311.2 545.1 L 300.0 545.1" /><path d="M 311.2 534.2 L 267.3 534.2" /><path d="M 311.2 523.2 L 270.4 523.2" /><path d="M 311.2 512.2 L 244.2 512.2" /><path d="M 311.2 501.2 L 244.5 501.2" /><path d="M 311.2 490.3 L 265.5 490.3" /><path d="M 311.2 479.3 L 245.0 479.3" /><path d="M 311.2 468.3 L 240.1 468.3" /><path d="M 311.2 457.3 L 255.6 457.3" /><path d="M 311.2 446.4 L 274.8 446.4" /><path d="M 311.2 435.4 L 258.9 435.4" /><path d="M 311.2 424.4 L 275.5 424.4" /><path d="M 311.2 413.5 L 248.7 413.5" /><path d="M 311.2 402.5 L 248.8 402.5" /><path d="M 311.2 391.5 L 281.0 391.5" /><path d="M 311.2 380.5 L 311.2 380.5" /><path d="M 311.2 369.6 L 261.6 369.6" /><path d="M 311.2 358.6 L 268.3 358.6" /><path d="M 311.2 347.6 L 271.5 347.6" /><path d="M 311.2 336.6 L 292.7 336.6" /><path d="M 311.2 325.7 L 234.9 325.7" /><path d="M 311.2 314.7 L 281.0 314.7" /><path d="M 311.2 303.7 L 197.2 303.7" /><path d="M 311.2 292.8 L 219.0 292.8" /><path d="M 311.2 281.8 L 188.8 281.8" /><path d="M 311.2 270.8 L 178.8 270.8" /><path d="M 311.2 259.8 L 273.3 259.8" /><path d="M 311.2 248.9 L 243.6 248.9" /><path d="M 311.2 237.9 L 231.6 237.9" /><path d="M 311.2 226.9 L 197.2 226.9" /><path d="M 311.2 215.9 L 275.6 215.9" /><path d="M 311.2 205.0 L 191.4 205.0" /><path d="M 311.2 194.0 L 216.4 194.0" /><path d="M 311.2 183.0 L 185.9 183.0" /><path d="M 311.2 172.0 L 167.8 172.0" /><path d="M 311.2 161.1 L 143.7 161.1" /><path d="M 311.2 150.1 L 171.0 150.1" /><path d="M 311.2 139.1 L 185.2 139.1" /><path d="M 311.2 128.2 L 196.8 128.2" /><path d="M 311.2 117.2 L 167.9 117.2" /><path d="M 311.2 106.2 L 177.0 106.2" /><path d="M 311.2 95.2 L 230.3 95.2" /><path d="M 311.2 84.3 L 203.1 84.3" /><path d="M 311.2 73.3 L 202.7 73.3" /><path d="M 311.2 62.3 L 206.6 62.3" /></g><g class="toytree-NodeLabels" style="fill:rgb(14.9%,14.9%,14.9%);fill-opacity:1.0;font-size:9px;stroke:none"><g transform="translate(223.05,892.11)"><text>68</text></g><g transform="translate(237.60,837.25)"><text>100</text></g><g transform="translate(234.62,1144.50)"><text>77</text></g><g transform="translate(232.56,1122.55)"><text>100</text></g><g transform="translate(220.45,883.88)"><text>86</text></g><g transform="translate(231.91,829.02)"><text>100</text></g><g transform="translate(227.63,1133.52)"><text>100</text></g><g transform="translate(241.75,1067.68)"><text>100</text></g><g transform="translate(245.85,1034.76)"><text>100</text></g><g transform="translate(248.34,1001.84)"><text>78</text></g><g transform="translate(214.47,874.28)"><text>100</text></g><g transform="translate(223.41,819.42)"><text>100</text></g><g transform="translate(213.96,1119.81)"><text>100</text></g><g transform="translate(214.34,1089.63)"><text>100</text></g><g transform="translate(235.77,1059.45)"><text>100</text></g><g transform="translate(236.67,1026.53)"><text>100</text></g><g transform="translate(244.56,993.61)"><text>84</text></g><g transform="translate(209.12,864.00)"><text>100</text></g><g transform="translate(205.26,809.13)"><text>99</text></g><g transform="translate(212.09,628.76)"><text>80</text></g><g transform="translate(207.46,1104.72)"><text>100</text></g><g transform="translate(230.05,1042.99)"><text>100</text></g><g transform="translate(241.90,984.01)"><text>86</text></g><g transform="translate(226.42,946.98)"><text>100</text></g><g transform="translate(198.19,836.56)"><text>100</text></g><g transform="translate(200.72,782.38)"><text>100</text></g><g transform="translate(218.17,760.44)"><text>100</text></g><g transform="translate(248.55,694.60)"><text>53</text></g><g transform="translate(250.17,661.68)"><text>61</text></g><g transform="translate(205.04,620.53)"><text>30</text></g><g transform="translate(208.40,595.84)"><text>78</text></g><g transform="translate(231.35,562.92)"><text>69</text></g><g transform="translate(196.55,1073.86)"><text>100</text></g><g transform="translate(237.17,973.73)"><text>100</text></g><g transform="translate(219.66,938.75)"><text>100</text></g><g transform="translate(225.32,914.06)"><text>100</text></g><g transform="translate(192.04,809.47)"><text>100</text></g><g transform="translate(206.92,752.21)"><text>100</text></g><g transform="translate(203.73,727.52)"><text>87</text></g><g transform="translate(242.07,686.37)"><text>100</text></g><g transform="translate(244.30,653.45)"><text>100</text></g><g transform="translate(198.29,608.18)"><text>26</text></g><g transform="translate(221.16,554.69)"><text>95</text></g><g transform="translate(187.17,1023.79)"><text>100</text></g><g transform="translate(209.72,926.40)"><text>100</text></g><g transform="translate(185.33,780.84)"><text>100</text></g><g transform="translate(198.18,719.29)"><text>100</text></g><g transform="translate(231.99,669.91)"><text>100</text></g><g transform="translate(188.02,593.78)"><text>100</text></g><g transform="translate(212.70,545.09)"><text>97</text></g><g transform="translate(209.65,508.05)"><text>100</text></g><g transform="translate(213.76,453.19)"><text>100</text></g><g transform="translate(179.26,975.10)"><text>100</text></g><g transform="translate(169.31,750.06)"><text>100</text></g><g transform="translate(157.22,631.85)"><text>100</text></g><g transform="translate(201.11,534.80)"><text>100</text></g><g transform="translate(191.06,499.83)"><text>100</text></g><g transform="translate(193.37,444.96)"><text>100</text></g><g transform="translate(166.33,420.27)"><text>100</text></g><g transform="translate(214.48,376.38)"><text>100</text></g><g transform="translate(244.88,354.43)"><text>100</text></g><g transform="translate(153.38,862.58)"><text>100</text></g><g transform="translate(149.14,583.32)"><text>100</text></g><g transform="translate(179.29,490.22)"><text>100</text></g><g transform="translate(155.82,432.61)"><text>100</text></g><g transform="translate(250.41,398.32)"><text>100</text></g><g transform="translate(173.88,365.40)"><text>100</text></g><g transform="translate(170.85,332.49)"><text>96</text></g><g transform="translate(137.50,722.95)"><text>100</text></g><g transform="translate(149.37,479.94)"><text>100</text></g><g transform="translate(111.94,415.47)"><text>100</text></g><g transform="translate(159.28,348.94)"><text>100</text></g><g transform="translate(157.52,310.54)"><text>100</text></g><g transform="translate(134.01,266.65)"><text>100</text></g><g transform="translate(103.72,601.44)"><text>100</text></g><g transform="translate(103.27,382.21)"><text>81</text></g><g transform="translate(126.99,302.31)"><text>100</text></g><g transform="translate(118.33,258.42)"><text>100</text></g><g transform="translate(93.62,491.83)"><text>100</text></g><g transform="translate(119.74,292.71)"><text>100</text></g><g transform="translate(99.51,248.82)"><text>100</text></g><g transform="translate(88.20,392.27)"><text>59</text></g><g transform="translate(89.32,238.53)"><text>71</text></g><g transform="translate(163.21,211.78)"><text>100</text></g><g transform="translate(83.52,315.40)"><text>44</text></g><g transform="translate(108.85,203.55)"><text>100</text></g><g transform="translate(88.91,167.89)"><text>99</text></g><g transform="translate(98.51,124.00)"><text>100</text></g><g transform="translate(78.37,259.47)"><text>90</text></g><g transform="translate(82.64,159.66)"><text>100</text></g><g transform="translate(86.62,115.77)"><text>100</text></g><g transform="translate(173.28,91.08)"><text>100</text></g><g transform="translate(75.04,221.91)"><text>92</text></g><g transform="translate(78.08,150.06)"><text>99</text></g><g transform="translate(73.37,103.42)"><text>100</text></g><g transform="translate(67.77,185.98)"><text>100</text></g><g transform="translate(57.79,89.02)"><text>100</text></g></g><g class="toytree-TipLabels" style="fill:rgb(14.9%,14.9%,14.9%);fill-opacity:1.0;font-family:helvetica;font-size:11px;font-weight:normal;stroke:none;white-space:pre"><g transform="translate(311.19,1137.68)rotate(0)"><text style="fill:rgb(10.6%,62%,46.7%);fill-opacity:1.0" x="15.00" y="2.81">S_bernardinus_NJ_4770</text></g><g transform="translate(311.19,1126.71)rotate(0)"><text style="fill:rgb(10.6%,62%,46.7%);fill-opacity:1.0" x="15.00" y="2.81">S_bernardinus_NJ_4775</text></g><g transform="translate(311.19,1115.74)rotate(0)"><text style="fill:rgb(10.6%,62%,46.7%);fill-opacity:1.0" x="15.00" y="2.81">S_bernardinus_White_8769</text></g><g transform="translate(311.19,1104.76)rotate(0)"><text style="fill:rgb(10.6%,62%,46.7%);fill-opacity:1.0" x="15.00" y="2.81">S_bernardinus_NJ_3777</text></g><g transform="translate(311.19,1093.79)rotate(0)"><text style="fill:rgb(10.6%,62%,46.7%);fill-opacity:1.0" x="15.00" y="2.81">S_bernardinus_NJ_4583</text></g><g transform="translate(311.19,1082.82)rotate(0)"><text style="fill:rgb(10.6%,62%,46.7%);fill-opacity:1.0" x="15.00" y="2.81">S_bernardinus_e095</text></g><g transform="translate(311.19,1071.84)rotate(0)"><text style="fill:rgb(10.6%,62%,46.7%);fill-opacity:1.0" x="15.00" y="2.81">S_bernardinus_NJ_3797</text></g><g transform="translate(311.19,1060.87)rotate(0)"><text style="fill:rgb(10.6%,62%,46.7%);fill-opacity:1.0" x="15.00" y="2.81">S_medeirosii_NJ_2419b</text></g><g transform="translate(311.19,1049.90)rotate(0)"><text style="fill:rgb(10.6%,62%,46.7%);fill-opacity:1.0" x="15.00" y="2.81">S_medeirosii_NJ_2419a</text></g><g transform="translate(311.19,1038.92)rotate(0)"><text style="fill:rgb(10.6%,62%,46.7%);fill-opacity:1.0" x="15.00" y="2.81">S_medeirosii_NJ_525</text></g><g transform="translate(311.19,1027.95)rotate(0)"><text style="fill:rgb(10.6%,62%,46.7%);fill-opacity:1.0" x="15.00" y="2.81">S_medeirosii_NJ_4764b</text></g><g transform="translate(311.19,1016.98)rotate(0)"><text style="fill:rgb(10.6%,62%,46.7%);fill-opacity:1.0" x="15.00" y="2.81">S_medeirosii_NJ_4764a</text></g><g transform="translate(311.19,1006.00)rotate(0)"><text style="fill:rgb(10.6%,62%,46.7%);fill-opacity:1.0" x="15.00" y="2.81">S_medeirosii_UCR_251770</text></g><g transform="translate(311.19,995.03)rotate(0)"><text style="fill:rgb(10.6%,62%,46.7%);fill-opacity:1.0" x="15.00" y="2.81">S_juneae_NJ_4774</text></g><g transform="translate(311.19,984.06)rotate(0)"><text style="fill:rgb(10.6%,62%,46.7%);fill-opacity:1.0" x="15.00" y="2.81">S_juneae_NJ_4772</text></g><g transform="translate(311.19,973.09)rotate(0)"><text style="fill:rgb(10.6%,62%,46.7%);fill-opacity:1.0" x="15.00" y="2.81">S_juneae_NJ_4773</text></g><g transform="translate(311.19,962.11)rotate(0)"><text style="fill:rgb(10.6%,62%,46.7%);fill-opacity:1.0" x="15.00" y="2.81">S_campestris_NJ_3784</text></g><g transform="translate(311.19,951.14)rotate(0)"><text style="fill:rgb(10.6%,62%,46.7%);fill-opacity:1.0" x="15.00" y="2.81">S_campestris_NJ_3785</text></g><g transform="translate(311.19,940.17)rotate(0)"><text style="fill:rgb(10.6%,62%,46.7%);fill-opacity:1.0" x="15.00" y="2.81">S_campestris_NJ_4626</text></g><g transform="translate(311.19,929.19)rotate(0)"><text style="fill:rgb(10.6%,62%,46.7%);fill-opacity:1.0" x="15.00" y="2.81">S_campestris_NJ_4627</text></g><g transform="translate(311.19,918.22)rotate(0)"><text style="fill:rgb(10.6%,62%,46.7%);fill-opacity:1.0" x="15.00" y="2.81">S_campestris_NJ_3800</text></g><g transform="translate(311.19,907.25)rotate(0)"><text style="fill:rgb(10.6%,62%,46.7%);fill-opacity:1.0" x="15.00" y="2.81">S_campestris_NJ_3793</text></g><g transform="translate(311.19,896.27)rotate(0)"><text style="fill:rgb(10.6%,62%,46.7%);fill-opacity:1.0" x="15.00" y="2.81">S_campestris_NJ_3791</text></g><g transform="translate(311.19,885.30)rotate(0)"><text style="fill:rgb(10.6%,62%,46.7%);fill-opacity:1.0" x="15.00" y="2.81">S_cordatus_nic262</text></g><g transform="translate(311.19,874.33)rotate(0)"><text style="fill:rgb(10.6%,62%,46.7%);fill-opacity:1.0" x="15.00" y="2.81">S_cordatus_NJ_3825</text></g><g transform="translate(311.19,863.35)rotate(0)"><text style="fill:rgb(10.6%,62%,46.7%);fill-opacity:1.0" x="15.00" y="2.81">S_cordatus_e086</text></g><g transform="translate(311.19,852.38)rotate(0)"><text style="fill:rgb(10.6%,62%,46.7%);fill-opacity:1.0" x="15.00" y="2.81">S_cordatus_e054</text></g><g transform="translate(311.19,841.41)rotate(0)"><text style="fill:rgb(10.6%,62%,46.7%);fill-opacity:1.0" x="15.00" y="2.81">S_cordatus_NJ_3818</text></g><g transform="translate(311.19,830.44)rotate(0)"><text style="fill:rgb(10.6%,62%,46.7%);fill-opacity:1.0" x="15.00" y="2.81">S_cordatus_NJ_1569</text></g><g transform="translate(311.19,819.46)rotate(0)"><text style="fill:rgb(10.6%,62%,46.7%);fill-opacity:1.0" x="15.00" y="2.81">S_cordatus_NJ_3686</text></g><g transform="translate(311.19,808.49)rotate(0)"><text style="fill:rgb(10.6%,62%,46.7%);fill-opacity:1.0" x="15.00" y="2.81">S_cordatus_NJ_3637</text></g><g transform="translate(311.19,797.52)rotate(0)"><text style="fill:rgb(10.6%,62%,46.7%);fill-opacity:1.0" x="15.00" y="2.81">S_cordatus_Bell_8389</text></g><g transform="translate(311.19,786.54)rotate(0)"><text style="fill:rgb(10.6%,62%,46.7%);fill-opacity:1.0" x="15.00" y="2.81">S_cordatus_Andre_12643</text></g><g transform="translate(311.19,775.57)rotate(0)"><text style="fill:rgb(10.6%,62%,46.7%);fill-opacity:1.0" x="15.00" y="2.81">S_cordatus_Hodgson_23698</text></g><g transform="translate(311.19,764.60)rotate(0)"><text style="fill:rgb(10.6%,62%,46.7%);fill-opacity:1.0" x="15.00" y="2.81">S_cordatus_Moore_3278</text></g><g transform="translate(311.19,753.62)rotate(0)"><text style="fill:rgb(10.6%,62%,46.7%);fill-opacity:1.0" x="15.00" y="2.81">S_cordatus_nic139</text></g><g transform="translate(311.19,742.65)rotate(0)"><text style="fill:rgb(10.6%,62%,46.7%);fill-opacity:1.0" x="15.00" y="2.81">S_cordatus_NJ_4387</text></g><g transform="translate(311.19,731.68)rotate(0)"><text style="fill:rgb(10.6%,62%,46.7%);fill-opacity:1.0" x="15.00" y="2.81">S_cordatus_Scord_Oregon</text></g><g transform="translate(311.19,720.70)rotate(0)"><text style="fill:rgb(10.6%,62%,46.7%);fill-opacity:1.0" x="15.00" y="2.81">S_oliganthus_NJ_3805</text></g><g transform="translate(311.19,709.73)rotate(0)"><text style="fill:rgb(10.6%,62%,46.7%);fill-opacity:1.0" x="15.00" y="2.81">S_oliganthus_RENO_18159</text></g><g transform="translate(311.19,698.76)rotate(0)"><text style="fill:rgb(10.6%,62%,46.7%);fill-opacity:1.0" x="15.00" y="2.81">S_oliganthus_NJ_3801</text></g><g transform="translate(311.19,687.78)rotate(0)"><text style="fill:rgb(85.1%,37.3%,0.8%);fill-opacity:1.0" x="15.00" y="2.81">S_barbatus_NJ_4394</text></g><g transform="translate(311.19,676.81)rotate(0)"><text style="fill:rgb(85.1%,37.3%,0.8%);fill-opacity:1.0" x="15.00" y="2.81">S_barbatus_Janeway_7367</text></g><g transform="translate(311.19,665.84)rotate(0)"><text style="fill:rgb(85.1%,37.3%,0.8%);fill-opacity:1.0" x="15.00" y="2.81">S_barbatus_NJ_4395</text></g><g transform="translate(311.19,654.87)rotate(0)"><text style="fill:rgb(85.1%,37.3%,0.8%);fill-opacity:1.0" x="15.00" y="2.81">S_barbatus_NJ_4393</text></g><g transform="translate(311.19,643.89)rotate(0)"><text style="fill:rgb(85.1%,37.3%,0.8%);fill-opacity:1.0" x="15.00" y="2.81">S_barbatus_NJ_4388</text></g><g transform="translate(311.19,632.92)rotate(0)"><text style="fill:rgb(85.1%,37.3%,0.8%);fill-opacity:1.0" x="15.00" y="2.81">S_barbatus_nic176</text></g><g transform="translate(311.19,621.95)rotate(0)"><text style="fill:rgb(85.1%,37.3%,0.8%);fill-opacity:1.0" x="15.00" y="2.81">S_longisiliquus_NJ_4398</text></g><g transform="translate(311.19,610.97)rotate(0)"><text style="fill:rgb(85.1%,37.3%,0.8%);fill-opacity:1.0" x="15.00" y="2.81">S_longisiliquus_nic180</text></g><g transform="translate(311.19,600.00)rotate(0)"><text style="fill:rgb(85.1%,37.3%,0.8%);fill-opacity:1.0" x="15.00" y="2.81">S_longisiliquus_NJ_4379</text></g><g transform="translate(311.19,589.03)rotate(0)"><text style="fill:rgb(85.1%,37.3%,0.8%);fill-opacity:1.0" x="15.00" y="2.81">S_longisiliquus_D116</text></g><g transform="translate(311.19,578.05)rotate(0)"><text style="fill:rgb(85.1%,37.3%,0.8%);fill-opacity:1.0" x="15.00" y="2.81">S_longisiliquus_e055</text></g><g transform="translate(311.19,567.08)rotate(0)"><text style="fill:rgb(85.1%,37.3%,0.8%);fill-opacity:1.0" x="15.00" y="2.81">S_longisiliquus_NJ_4399</text></g><g transform="translate(311.19,556.11)rotate(0)"><text style="fill:rgb(85.1%,37.3%,0.8%);fill-opacity:1.0" x="15.00" y="2.81">S_howellii_NJ_4385</text></g><g transform="translate(311.19,545.13)rotate(0)"><text style="fill:rgb(85.1%,37.3%,0.8%);fill-opacity:1.0" x="15.00" y="2.81">S_howellii_NJ_4382</text></g><g transform="translate(311.19,534.16)rotate(0)"><text style="fill:rgb(85.1%,37.3%,0.8%);fill-opacity:1.0" x="15.00" y="2.81">S_howellii_NJ_4386</text></g><g transform="translate(311.19,523.19)rotate(0)"><text style="fill:rgb(85.1%,37.3%,0.8%);fill-opacity:1.0" x="15.00" y="2.81">S_howellii_NJ_4383</text></g><g transform="translate(311.19,512.22)rotate(0)"><text style="fill:rgb(85.1%,37.3%,0.8%);fill-opacity:1.0" x="15.00" y="2.81">S_howellii_nic152</text></g><g transform="translate(311.19,501.24)rotate(0)"><text style="fill:rgb(40%,65.1%,11.8%);fill-opacity:1.0" x="15.00" y="2.81">S_glandulosus_e041</text></g><g transform="translate(311.19,490.27)rotate(0)"><text style="fill:rgb(40%,65.1%,11.8%);fill-opacity:1.0" x="15.00" y="2.81">S_glandulosus_nic202</text></g><g transform="translate(311.19,479.30)rotate(0)"><text style="fill:rgb(40%,65.1%,11.8%);fill-opacity:1.0" x="15.00" y="2.81">S_spnov_aarthur_NJ_0038</text></g><g transform="translate(311.19,468.32)rotate(0)"><text style="fill:rgb(40%,65.1%,11.8%);fill-opacity:1.0" x="15.00" y="2.81">S_glandulosus_d125</text></g><g transform="translate(311.19,457.35)rotate(0)"><text style="fill:rgb(40%,65.1%,11.8%);fill-opacity:1.0" x="15.00" y="2.81">S_glandulosus_albidus_d108A</text></g><g transform="translate(311.19,446.38)rotate(0)"><text style="fill:rgb(90.2%,67.1%,0.8%);fill-opacity:1.0" x="15.00" y="2.81">S_tortuosus_e040</text></g><g transform="translate(311.19,435.40)rotate(0)"><text style="fill:rgb(90.2%,67.1%,0.8%);fill-opacity:1.0" x="15.00" y="2.81">S_tortuosus_Helmkamp_17516</text></g><g transform="translate(311.19,424.43)rotate(0)"><text style="fill:rgb(90.2%,67.1%,0.8%);fill-opacity:1.0" x="15.00" y="2.81">S_tortuosus_NJ_3665</text></g><g transform="translate(311.19,413.46)rotate(0)"><text style="fill:rgb(90.2%,67.1%,0.8%);fill-opacity:1.0" x="15.00" y="2.81">S_farnsworthianus_e034</text></g><g transform="translate(311.19,402.48)rotate(0)"><text style="fill:rgb(90.2%,67.1%,0.8%);fill-opacity:1.0" x="15.00" y="2.81">S_diversifolius_e077</text></g><g transform="translate(311.19,391.51)rotate(0)"><text style="fill:rgb(90.2%,67.1%,0.8%);fill-opacity:1.0" x="15.00" y="2.81">S_polygaloides_e071</text></g><g transform="translate(311.19,380.54)rotate(0)"><text style="fill:rgb(90.2%,67.1%,0.8%);fill-opacity:1.0" x="15.00" y="2.81">S_polygaloides_D088</text></g><g transform="translate(311.19,369.56)rotate(0)"><text style="fill:rgb(90.2%,67.1%,0.8%);fill-opacity:1.0" x="15.00" y="2.81">S_brachiatus_e100</text></g><g transform="translate(311.19,358.59)rotate(0)"><text style="fill:rgb(90.2%,67.1%,0.8%);fill-opacity:1.0" x="15.00" y="2.81">S_morrisonii_e016</text></g><g transform="translate(311.19,347.62)rotate(0)"><text style="fill:rgb(90.2%,67.1%,0.8%);fill-opacity:1.0" x="15.00" y="2.81">S_barbiger_nic193</text></g><g transform="translate(311.19,336.65)rotate(0)"><text style="fill:rgb(90.2%,67.1%,0.8%);fill-opacity:1.0" x="15.00" y="2.81">S_barbiger_e045</text></g><g transform="translate(311.19,325.67)rotate(0)"><text style="fill:rgb(90.2%,67.1%,0.8%);fill-opacity:1.0" x="15.00" y="2.81">S_breweri_e035</text></g><g transform="translate(311.19,314.70)rotate(0)"><text style="fill:rgb(90.2%,67.1%,0.8%);fill-opacity:1.0" x="15.00" y="2.81">S_hesperidis_e043</text></g><g transform="translate(311.19,303.73)rotate(0)"><text style="fill:rgb(65.1%,46.3%,11.4%);fill-opacity:1.0" x="15.00" y="2.81">C_anceps_nic053</text></g><g transform="translate(311.19,292.75)rotate(0)"><text style="fill:rgb(65.1%,46.3%,11.4%);fill-opacity:1.0" x="15.00" y="2.81">C_flavescens_e003</text></g><g transform="translate(311.19,281.78)rotate(0)"><text style="fill:rgb(65.1%,46.3%,11.4%);fill-opacity:1.0" x="15.00" y="2.81">S_glandulosus_e081</text></g><g transform="translate(311.19,270.81)rotate(0)"><text style="fill:rgb(65.1%,46.3%,11.4%);fill-opacity:1.0" x="15.00" y="2.81">C_lasyophyllus_CalBod032213_1</text></g><g transform="translate(311.19,259.83)rotate(0)"><text style="fill:rgb(40%,40%,40%);fill-opacity:1.0" x="15.00" y="2.81">C_californicus_NJ_3881</text></g><g transform="translate(311.19,248.86)rotate(0)"><text style="fill:rgb(40%,40%,40%);fill-opacity:1.0" x="15.00" y="2.81">C_coulteri_e015</text></g><g transform="translate(311.19,237.89)rotate(0)"><text style="fill:rgb(40%,40%,40%);fill-opacity:1.0" x="15.00" y="2.81">C_inflatus_e044</text></g><g transform="translate(311.19,226.91)rotate(0)"><text style="fill:rgb(40%,40%,40%);fill-opacity:1.0" x="15.00" y="2.81">C_heterophyllus_nic027</text></g><g transform="translate(311.19,215.94)rotate(0)"><text style="fill:rgb(40%,40%,40%);fill-opacity:1.0" x="15.00" y="2.81">Si_hammittii_e111</text></g><g transform="translate(311.19,204.97)rotate(0)"><text style="fill:rgb(0%,0%,0%);fill-opacity:1.0" x="15.00" y="2.81">C_amp_amplexicaulis_e068</text></g><g transform="translate(311.19,194.00)rotate(0)"><text style="fill:rgb(0%,0%,0%);fill-opacity:1.0" x="15.00" y="2.81">C_amp_barbarae_REF</text></g><g transform="translate(311.19,183.02)rotate(0)"><text style="fill:rgb(0%,0%,0%);fill-opacity:1.0" x="15.00" y="2.81">C_amp_barbarae_e020</text></g><g transform="translate(311.19,172.05)rotate(0)"><text style="fill:rgb(0%,0%,0%);fill-opacity:1.0" x="15.00" y="2.81">C_hallii_e078</text></g><g transform="translate(311.19,161.08)rotate(0)"><text style="fill:rgb(45.9%,43.9%,70.2%);fill-opacity:1.0" x="15.00" y="2.81">S_pilosus_e053</text></g><g transform="translate(311.19,150.10)rotate(0)"><text style="fill:rgb(45.9%,43.9%,70.2%);fill-opacity:1.0" x="15.00" y="2.81">Thly_aurea_Porter_15531</text></g><g transform="translate(311.19,139.13)rotate(0)"><text style="fill:rgb(45.9%,43.9%,70.2%);fill-opacity:1.0" x="15.00" y="2.81">The_crispum_e084</text></g><g transform="translate(311.19,128.16)rotate(0)"><text style="fill:rgb(45.9%,43.9%,70.2%);fill-opacity:1.0" x="15.00" y="2.81">C_glaucus_Porter_15587</text></g><g transform="translate(311.19,117.18)rotate(0)"><text style="fill:rgb(90.6%,16.1%,54.1%);fill-opacity:1.0" x="15.00" y="2.81">St_pinnata_e090</text></g><g transform="translate(311.19,106.21)rotate(0)"><text style="fill:rgb(90.6%,16.1%,54.1%);fill-opacity:1.0" x="15.00" y="2.81">St_elata_e093</text></g><g transform="translate(311.19,95.24)rotate(0)"><text style="fill:rgb(90.6%,16.1%,54.1%);fill-opacity:1.0" x="15.00" y="2.81">C_major_NJ_4561</text></g><g transform="translate(311.19,84.26)rotate(0)"><text style="fill:rgb(90.6%,16.1%,54.1%);fill-opacity:1.0" x="15.00" y="2.81">Sl_longirostris_Porter_15532</text></g><g transform="translate(311.19,73.29)rotate(0)"><text style="fill:rgb(90.6%,16.1%,54.1%);fill-opacity:1.0" x="15.00" y="2.81">Sl_longirostris_e065</text></g><g transform="translate(311.19,62.32)rotate(0)"><text style="fill:rgb(90.6%,16.1%,54.1%);fill-opacity:1.0" x="15.00" y="2.81">S_bracteatus_e120</text></g></g></g></g></g></svg>